<svg width="25" height="24" viewBox="0 0 25 24" fill="none" xmlns="http://www.w3.org/2000/svg">
<g clip-path="url(#clip0_622_10)">
<path d="M17.3453 0.480119V2.48654C17.3453 2.75031 17.5612 2.96666 17.831 2.96666H21.5189C21.7858 2.96666 22.0047 3.18004 22.0047 3.44678V6.4164C22.0047 6.68017 22.2206 6.89652 22.4904 6.89652H24.5203C24.7871 6.89652 25.006 6.68313 25.006 6.4164V1.8286C25.006 0.81798 24.1785 0 23.156 0H17.834C17.5672 0 17.3483 0.213386 17.3483 0.480119H17.3453ZM0.485728 6.89059H2.51559C2.78244 6.89059 3.00132 6.6772 3.00132 6.41047V3.44085C3.00132 3.17708 3.2172 2.96073 3.48705 2.96073H7.17498C7.44183 2.96073 7.66071 2.74734 7.66071 2.48061V0.480119C7.66071 0.21635 7.44483 0 7.17498 0H1.84996C0.827537 0 0 0.81798 0 1.8286V6.41343C0 6.6772 0.215879 6.89355 0.485728 6.89355V6.89059ZM22.0017 16.9494V20.5592C22.0017 20.8229 21.7858 21.0393 21.516 21.0393H17.828C17.5612 21.0393 17.3423 21.2527 17.3423 21.5194V23.5258C17.3423 23.7896 17.5582 24.0059 17.828 24.0059H23.15C24.1725 24.0059 25 23.1879 25 22.1773V16.9523C25 16.6886 24.7841 16.4722 24.5143 16.4722H22.4844C22.2176 16.4722 21.9987 16.6856 21.9987 16.9523L22.0017 16.9494ZM2.51259 16.4693H0.485728C0.218877 16.4693 0 16.6826 0 16.9494V22.1744C0 23.185 0.827537 24.003 1.84996 24.003H7.17198C7.43883 24.003 7.65771 23.7896 7.65771 23.5228V21.5164C7.65771 21.2527 7.44183 21.0363 7.17198 21.0363H3.48405C3.2172 21.0363 2.99832 20.8229 2.99832 20.5562V16.9464C2.99832 16.6826 2.78244 16.4663 2.51259 16.4663V16.4693Z" fill="#8E949C"/>
<path d="M8.33837 8.33096C8.42832 7.73822 7.86464 7.21661 7.29796 7.21661C6.73127 7.21661 6.28152 7.69377 6.24854 8.25391C6.20657 8.9563 6.19457 9.6587 6.21256 10.3611C6.24554 11.7629 8.56625 11.6948 8.2874 10.1418C8.17946 9.54015 8.24842 8.93259 8.33837 8.328V8.33096Z" fill="#8E949C"/>
<path d="M16.3048 8.4584C16.4277 9.08077 16.3468 9.71204 16.2209 10.3344C16.0949 10.9568 16.6706 11.4932 17.2553 11.4932C17.84 11.4932 18.2747 11.019 18.3047 10.4559C18.3467 9.69129 18.3707 8.92962 18.3737 8.16203C18.3796 6.73353 15.981 6.83133 16.3048 8.4584Z" fill="#8E949C"/>
<path d="M15.1025 15.346C14.3379 15.7076 13.5854 16.1996 12.7278 16.2233C11.7564 16.25 10.725 16.004 10.0204 15.3253C9.0549 14.3917 7.56774 15.8558 8.53619 16.7923C9.56762 17.7911 10.8449 18.1526 12.2571 18.2682C13.7593 18.3927 14.8327 17.7644 16.1609 17.1391C17.3782 16.5641 16.3168 14.774 15.1025 15.349V15.346Z" fill="#8E949C"/>
<path d="M13.3785 8.12346C13.1716 6.80758 11.1507 7.36772 11.3546 8.67471C11.4745 9.43342 11.4356 10.2218 11.3906 10.9834C11.3456 11.7303 11.1807 11.9763 10.665 12.4919C9.71153 13.4403 11.1957 14.9074 12.1492 13.959C12.8927 13.221 13.3125 12.6164 13.4384 11.5465C13.5734 10.4055 13.5554 9.25559 13.3785 8.12346Z" fill="#8E949C"/>
</g>
<defs>
<clipPath id="clip0_622_10">
<rect width="25" height="24" fill="white"/>
</clipPath>
</defs>
</svg>
