<svg width="28" height="29" viewBox="0 0 28 29" fill="none" xmlns="http://www.w3.org/2000/svg">
<g clip-path="url(#clip0_632_2)">
<path d="M14.0354 12.6554H12.8051V9.97913H14.0566C15.3505 9.97913 15.9515 10.3221 15.9515 11.2059C15.9515 12.0897 15.3894 12.6554 14.0354 12.6554Z" fill="#1D2939"/>
<path d="M16.5278 16.0529C16.5278 17.1347 15.803 17.665 14.2864 17.665H12.8051V14.5822H14.2864C15.8207 14.5822 16.5278 15.0135 16.5278 16.0529Z" fill="#1D2939"/>
<path d="M14 0.0765991C6.26818 0.0765991 0 6.34478 0 14.0766C0 21.8084 6.26818 28.0766 14 28.0766C21.7318 28.0766 28 21.8084 28 14.0766C28 6.34478 21.7318 0.0765991 14 0.0765991ZM15.3965 19.7084V21.9958H13.0455V19.7508H10.0227V7.88973H13.0455V5.76498H15.3965V7.95337C17.3232 8.16195 18.6737 8.9468 18.6737 10.8311C18.6737 11.8953 18.0162 13.0301 16.5667 13.3943V13.465C18.3273 13.7796 19.25 14.6705 19.25 16.2579C19.25 18.4003 17.6343 19.4892 15.3965 19.7084Z" fill="#1D2939"/>
</g>
<defs>
<clipPath id="clip0_632_2">
<rect width="28" height="28" fill="white" transform="translate(0 0.0765991)"/>
</clipPath>
</defs>
</svg>
