<svg width="24" height="23" viewBox="0 0 24 23" fill="none" xmlns="http://www.w3.org/2000/svg">
<g clip-path="url(#clip0_622_28)">
<path d="M4.71664 16.3569C5.29021 16.3569 5.75518 15.8748 5.75518 15.2801C5.75518 14.6854 5.29021 14.2032 4.71664 14.2032C4.14307 14.2032 3.6781 14.6854 3.6781 15.2801C3.6781 15.8748 4.14307 16.3569 4.71664 16.3569Z" fill="#8E949C"/>
<path d="M19.3698 16.3569C19.9434 16.3569 20.4084 15.8748 20.4084 15.2801C20.4084 14.6854 19.9434 14.2032 19.3698 14.2032C18.7963 14.2032 18.3313 14.6854 18.3313 15.2801C18.3313 15.8748 18.7963 16.3569 19.3698 16.3569Z" fill="#8E949C"/>
<path d="M15.6132 16.0064C15.6132 17.201 15.2643 18.2918 14.6937 19.1134H9.39281C8.82215 18.2918 8.47327 17.201 8.47327 16.0064C8.47327 13.4461 10.0716 11.371 12.0432 11.371C14.0148 11.371 15.6132 13.4461 15.6132 16.0064Z" fill="#8E949C"/>
<path d="M22.4855 7.71155H1.51454C0.681542 7.71155 0 8.4154 0 9.2819V21.4297C0 22.2962 0.681542 23 1.51454 23H22.4855C23.3212 23 24 22.2962 24 21.4297V9.2819C24 8.4154 23.3212 7.71155 22.4855 7.71155ZM22.1068 19.0769C22.0744 19.0713 22.0392 19.0713 22.0041 19.0713C21.0358 19.0713 20.2515 19.8846 20.2515 20.8885C20.2515 20.9389 20.2515 20.9894 20.2569 21.0371H3.77011C3.77011 20.9894 3.77552 20.9389 3.77552 20.8885C3.77552 19.8846 2.99121 19.0713 2.02299 19.0713C1.97972 19.0713 1.93644 19.0741 1.89317 19.0769V11.4832C1.93644 11.486 1.97972 11.4888 2.02299 11.4888C2.99121 11.4888 3.77552 10.6756 3.77552 9.67448H20.1055C20.1055 10.6756 20.8898 11.4888 21.858 11.4888C21.9419 11.4888 22.0257 11.4832 22.1068 11.4692V19.0769Z" fill="#8E949C"/>
<path d="M20.265 0H3.73761C3.20437 0 2.77209 0.448207 2.77209 1.0011V1.0039C2.77209 1.55679 3.20437 2.005 3.73761 2.005H20.265C20.7982 2.005 21.2305 1.55679 21.2305 1.0039V1.0011C21.2305 0.448207 20.7982 0 20.265 0Z" fill="#8E949C"/>
<path d="M22.0419 3.85577H1.84174C1.3085 3.85577 0.876221 4.30398 0.876221 4.85687V4.85968C0.876221 5.41257 1.3085 5.86077 1.84174 5.86077H22.0419C22.5751 5.86077 23.0074 5.41257 23.0074 4.85968V4.85687C23.0074 4.30398 22.5751 3.85577 22.0419 3.85577Z" fill="#8E949C"/>
</g>
<defs>
<clipPath id="clip0_622_28">
<rect width="24" height="23" fill="white"/>
</clipPath>
</defs>
</svg>
