<svg width="279" height="242" viewBox="0 0 279 242" fill="none" xmlns="http://www.w3.org/2000/svg">
<defs>
<linearGradient id="paint0_linear_776_353" x1="162.319" y1="166.711" x2="26.5101" y2="166.711" gradientUnits="userSpaceOnUse">
<stop stop-color="#A6C1E5"/>
<stop offset="1" stop-color="#DEE8F6" stop-opacity="0.8"/>
</linearGradient>
<linearGradient id="paint1_linear_776_353" x1="60.3313" y1="175.767" x2="53.7629" y2="175.767" gradientUnits="userSpaceOnUse">
<stop stop-color="#8AAFDC"/>
<stop offset="1" stop-color="#A4BFE4"/>
</linearGradient>
<linearGradient id="paint2_linear_776_353" x1="109.626" y1="192.981" x2="100.477" y2="192.981" gradientUnits="userSpaceOnUse">
<stop stop-color="#83AADA"/>
<stop offset="1" stop-color="#A2BEE4"/>
</linearGradient>
<linearGradient id="paint3_linear_776_353" x1="59.2173" y1="212.892" x2="54.8512" y2="212.892" gradientUnits="userSpaceOnUse">
<stop stop-color="#84AADA"/>
<stop offset="1" stop-color="#A3BEE3"/>
</linearGradient>
<linearGradient id="paint4_linear_776_353" x1="128.39" y1="168.152" x2="135.24" y2="168.152" gradientUnits="userSpaceOnUse">
<stop stop-color="#A7C1E5"/>
<stop offset="1" stop-color="#81A9DA"/>
</linearGradient>
<linearGradient id="paint5_linear_776_353" x1="48.5262" y1="165.712" x2="57.3224" y2="165.712" gradientUnits="userSpaceOnUse">
<stop stop-color="#A7C1E5"/>
<stop offset="1" stop-color="#81A9DA"/>
</linearGradient>
<clipPath id="clip0_776_353">
<rect width="279" height="242" fill="white"/>
</clipPath>
</defs>
<g clip-path="url(#clip0_776_353)">
<path d="M13.8728 144.648H174.4V235.211H13.8728" fill="#86ACDB"/>
<path d="M171.282 151.43H17.0546V228.436H171.282V151.43Z" fill="white"/>
<path d="M188.33 235.211H0V242H188.33V235.211Z" fill="#A6C1E5"/>
<path d="M35.5432 236.377H17.0546V241.174H35.5432V236.377Z" fill="#88B2DF"/>
<path d="M55.677 236.377H41.4329V241.174H55.677V236.377Z" fill="#88B2DF"/>
<path d="M76.8801 190.509H138.921V222.121H68.0135V199.379C68.0135 194.486 71.9827 190.516 76.8737 190.516L76.8801 190.509Z" stroke="#E0EAF7" stroke-width="2" stroke-miterlimit="10"/>
<path d="M98.512 180.538H160.553V212.15H89.6454V189.408C89.6454 184.515 93.6145 180.544 98.5056 180.544L98.512 180.538Z" stroke="#E0EAF7" stroke-width="2" stroke-miterlimit="10"/>
<path d="M32.5151 159.66H162.319V173.768H26.5101V165.667C26.5101 162.349 29.1989 159.66 32.5151 159.66Z" fill="url(#paint0_linear_776_353)"/>
<path d="M60.3313 172.481H53.7629V179.052H60.3313V172.481Z" fill="url(#paint1_linear_776_353)"/>
<path d="M109.632 188.409H100.477V197.567H109.632V188.409Z" fill="url(#paint2_linear_776_353)"/>
<path d="M123.998 178.674H117.071V185.604H123.998V178.674Z" fill="#3B70B7"/>
<path d="M91.6748 186.167H84.5239V193.321H91.6748V186.167Z" fill="#3B70B7"/>
<path d="M59.0893 186.724H54.7296V191.086H59.0893V186.724Z" fill="#87ACDB"/>
<path d="M59.2109 210.708H54.8512V215.07H59.2109V210.708Z" fill="url(#paint3_linear_776_353)"/>
<path d="M48.6926 177.95H43.5199V183.125H48.6926V177.95Z" fill="#E94A47"/>
<path d="M164.752 220.296H161.82V223.229H164.752V220.296Z" fill="#3B70B7"/>
<path d="M135.24 164.719H128.39V171.572H135.24V164.719Z" fill="url(#paint4_linear_776_353)"/>
<path d="M57.3224 161.498H48.5262V169.926H57.3224V161.498Z" fill="url(#paint5_linear_776_353)"/>
<path d="M51.0037 162.932H49.1984V164.738H51.0037V162.932Z" fill="white"/>
<path d="M109.686 113.755L102.684 108.535L98.0358 114.773L105.037 119.994L109.686 113.755Z" fill="#E94A47"/>
<path d="M225.115 88.6401L221.832 95.8564L229.046 99.1406L232.328 91.9242L225.115 88.6401Z" fill="#E94A47"/>
<path d="M260.204 74.575L254.232 78.0237L257.68 83.9971L263.651 80.5483L260.204 74.575Z" fill="#A4BEE3"/>
<path d="M140.5 97.586L134.178 99.9622L136.553 106.287L142.875 103.911L140.5 97.586Z" fill="#A4BEE3"/>
<path d="M143.85 75.638L140.18 80.823L145.363 84.4942L149.033 79.3092L143.85 75.638Z" fill="#5A84C3"/>
<path d="M23.9026 89.4381L17.913 85.323L13.7995 91.3149L19.7891 95.43L23.9026 89.4381Z" fill="#5A84C3"/>
<path d="M45.6645 60.8667H38.1167V68.4174H45.6645V60.8667Z" fill="#A6C1E5"/>
<path d="M92.4127 63.0238L83.6925 56.8472L77.5183 65.5707L86.2385 71.7473L92.4127 63.0238Z" fill="#E94A47"/>
<path d="M172.946 5.41683L166.991 0.322754L161.898 6.28082L167.854 11.3749L172.946 5.41683Z" fill="#5A84C3"/>
<path d="M29.6599 91.9661C29.6599 91.9661 52.4954 84.2809 72.6293 97.8708" stroke="#4170B7" stroke-miterlimit="10"/>
<path d="M31.5613 118.39C31.5613 118.39 48.2061 116.296 63.0969 131.02" stroke="#4170B7" stroke-miterlimit="10"/>
<path d="M82.1873 123.802C82.1873 123.802 61.4196 119.434 50.1011 133.229" stroke="#4170B7" stroke-miterlimit="10"/>
<path d="M157.454 120.292C157.454 120.292 133.594 121.836 121.296 141.695" stroke="#4170B7" stroke-miterlimit="10"/>
<path d="M159.727 104.743C159.727 104.743 183.234 102.021 187.376 116.469" stroke="#4170B7" stroke-miterlimit="10"/>
<path d="M278.629 94.9055C278.629 94.9055 260.921 95.3538 249.795 114.189" stroke="#4170B7" stroke-miterlimit="10"/>
<path d="M252.72 135.9C252.72 135.9 266.657 125.557 278.859 131.91" stroke="#4170B7" stroke-miterlimit="10"/>
<path d="M165.047 40.8467C165.047 40.8467 142.48 48.7496 136.302 68.3404" stroke="#4170B7" stroke-miterlimit="10"/>
<path d="M9.42999 134.696C7.93835 134.696 9.4556 136.546 10.3839 136.546C11.8755 136.546 10.3583 134.696 9.42999 134.696Z" fill="#4170B7"/>
<path d="M27.0415 130.225C25.7419 130.225 24.9481 132.236 26.619 132.236C27.9185 132.236 28.7124 130.225 27.0415 130.225Z" fill="#4170B7"/>
<path d="M40.319 136.258C40.3062 136.143 40.2806 136.028 40.2294 135.919C40.1846 135.778 40.127 135.644 40.0501 135.516C39.9925 135.419 39.9349 135.317 39.8773 135.221C39.7621 135.035 39.6276 134.869 39.4804 134.709C39.4163 134.645 39.3523 134.587 39.2883 134.523C39.1923 134.433 39.0835 134.376 38.9618 134.344H38.8402C38.7698 134.324 38.7185 134.344 38.6929 134.408C38.6417 134.465 38.6289 134.536 38.6545 134.613C38.6673 134.728 38.6929 134.843 38.7442 134.952C38.789 135.093 38.8466 135.227 38.9234 135.355C38.981 135.451 39.0386 135.554 39.0963 135.65C39.2115 135.836 39.3459 136.002 39.4932 136.162C39.5572 136.226 39.6212 136.284 39.6852 136.348C39.7813 136.438 39.8901 136.495 40.0117 136.527H40.1334C40.2038 136.547 40.255 136.527 40.2806 136.463C40.3318 136.406 40.3446 136.335 40.319 136.258Z" fill="#4170B7"/>
<path d="M44.4995 137.193C44.3202 136.598 43.6224 136.149 43.0206 136.149C42.4189 136.149 42.1052 136.662 42.2716 137.213C42.4509 137.808 43.1487 138.256 43.7505 138.256C44.3522 138.256 44.6659 137.744 44.4995 137.193Z" fill="#4170B7"/>
<path d="M41.1384 122.579C40.7287 122.579 39.7684 122.732 39.6468 123.232C39.5123 123.757 40.3126 123.815 40.6391 123.815C41.0488 123.815 42.0091 123.661 42.1307 123.161C42.2652 122.636 41.4649 122.579 41.1384 122.579Z" fill="#4170B7"/>
<path d="M30.633 120.997C30.2553 120.523 29.5383 120.305 28.9621 120.305C28.418 120.305 28.3283 120.76 28.6228 121.131C29.0005 121.605 29.7176 121.823 30.2937 121.823C30.8379 121.823 30.9275 121.368 30.633 120.997Z" fill="#4170B7"/>
<path d="M41.6954 116.962C41.0552 116.962 40.3638 117.238 40.2357 117.948C40.1269 118.557 40.6775 119.204 41.3049 119.204C41.9322 119.204 42.6364 118.928 42.7645 118.217C42.8733 117.609 42.3228 116.962 41.6954 116.962Z" fill="#4170B7"/>
<path d="M53.1868 130.93C52.2521 130.93 53.859 132.755 54.5248 132.755C55.4594 132.755 53.8526 130.93 53.1868 130.93Z" fill="#4170B7"/>
<path d="M65.6193 119.934C65.4464 119.268 64.915 118.864 64.2493 118.864C63.5835 118.864 63.3914 119.754 63.5194 120.248C63.6923 120.914 64.2236 121.317 64.8894 121.317C65.5552 121.317 65.7473 120.427 65.6193 119.934Z" fill="#4170B7"/>
<path d="M67.7255 116.571C67.3158 116.238 66.6628 115.873 66.1122 115.873C65.5616 115.873 66.1122 116.411 66.2722 116.552C66.682 116.885 67.335 117.25 67.8855 117.25C68.4361 117.25 67.8855 116.712 67.7255 116.571Z" fill="#4170B7"/>
<path d="M51.7399 106.773C51.119 106.773 50.4404 107.119 50.1971 107.721C49.9922 108.233 50.2611 108.816 50.8629 108.816C51.4647 108.816 52.1625 108.47 52.4057 107.868C52.6106 107.355 52.3417 106.773 51.7399 106.773Z" fill="#4170B7"/>
<path d="M69.025 108.777C68.8137 108.239 67.9815 107.945 67.4629 107.945C66.9828 107.945 66.4835 108.201 66.6947 108.745C66.906 109.283 67.7382 109.578 68.2568 109.578C68.7369 109.578 69.2363 109.322 69.025 108.777Z" fill="#4170B7"/>
<path d="M60.4721 95.9368C59.9152 95.9368 59.2878 96.3915 58.9293 96.7885C58.7308 97.0127 58.3531 97.5955 58.9293 97.5955C59.5054 97.5955 60.1136 97.1408 60.4721 96.7437C60.6706 96.5196 61.0483 95.9368 60.4721 95.9368Z" fill="#4170B7"/>
<path d="M38.1424 96.4939C37.6302 96.4939 36.862 96.6604 36.8108 97.3008C36.766 97.8964 37.547 98.2615 38.0336 98.2615C38.5457 98.2615 39.3139 98.095 39.3652 97.4545C39.41 96.8589 38.6289 96.4939 38.1424 96.4939Z" fill="#4170B7"/>
<path d="M70.5871 83.1602C70.0365 83.1602 69.2491 83.2882 68.9482 83.8326C68.6793 84.3193 69.1531 84.6844 69.6332 84.6844C70.1838 84.6844 70.9712 84.5563 71.2721 84.0119C71.541 83.5252 71.0672 83.1602 70.5871 83.1602Z" fill="#4170B7"/>
<path d="M77.3474 98.2615C77.2001 98.2615 76.067 98.2615 76.0734 98.4921C76.0734 98.7162 77.2833 98.6778 77.3602 98.6778C77.5074 98.6778 78.6405 98.6778 78.6341 98.4473C78.6341 98.2231 77.4242 98.2615 77.3474 98.2615Z" fill="#4170B7"/>
<path d="M91.8157 93.074C91.4636 92.6 90.7338 92.3311 90.164 92.3311C89.6262 92.3311 89.511 92.7601 89.7991 93.1508C90.1512 93.6247 90.881 93.8937 91.4508 93.8937C91.9885 93.8937 92.1038 93.4646 91.8157 93.074Z" fill="#4170B7"/>
<path d="M96.6939 104.192C96.2778 103.795 95.6504 103.5 95.0742 103.5C94.498 103.5 94.959 104.147 95.1446 104.32C95.5608 104.717 96.1881 105.012 96.7643 105.012C97.3405 105.012 96.8795 104.365 96.6939 104.192Z" fill="#4170B7"/>
<path d="M93.2561 106.773C91.6493 106.773 92.2766 109.053 93.5826 109.053C95.1895 109.053 94.5621 106.773 93.2561 106.773Z" fill="#4170B7"/>
<path d="M86.4765 113.119C86.278 112.633 85.4074 112.281 84.9208 112.281C84.4919 112.281 83.9542 112.396 84.1782 112.94C84.3767 113.427 85.2473 113.779 85.7339 113.779C86.1628 113.779 86.7006 113.664 86.4765 113.119Z" fill="#4170B7"/>
<path d="M77.4435 115.111C77.149 114.759 76.6241 114.215 76.1119 114.215C75.651 114.215 76.3232 115.111 76.4 115.201C76.6945 115.553 77.2194 116.097 77.7316 116.097C78.1925 116.097 77.5203 115.201 77.4435 115.111Z" fill="#4170B7"/>
<path d="M82.7762 117.045C81.291 117.045 82.8275 118.877 83.7365 118.877C85.2218 118.877 83.6853 117.045 82.7762 117.045Z" fill="#4170B7"/>
<path d="M75.9454 120.107C74.3257 120.107 74.505 122.515 75.9646 122.515C77.5843 122.515 77.405 120.107 75.9454 120.107Z" fill="#4170B7"/>
<path d="M69.0698 129.656C68.532 129.656 67.8855 130.104 67.5013 130.443C67.3157 130.61 66.8227 131.109 67.3669 131.109C67.9111 131.109 68.5513 130.661 68.9354 130.322C69.121 130.155 69.614 129.656 69.0698 129.656Z" fill="#4170B7"/>
<path d="M74.1721 98.5753C74.0313 98.3703 73.6216 97.6018 73.3271 97.6018C73.2887 97.6018 73.8904 98.6457 73.9481 98.729C74.0889 98.9339 74.4986 99.7024 74.7931 99.7024C74.8315 99.7024 74.2297 98.6585 74.1721 98.5753Z" fill="#4170B7"/>
<path d="M90.0872 36.0947C89.4918 36.0947 88.8004 36.4213 88.7684 37.0938C88.7364 37.7342 89.4278 38.1953 90.004 38.1953C90.5801 38.1953 91.2907 37.8687 91.3227 37.1963C91.3548 36.5558 90.6634 36.0947 90.0872 36.0947Z" fill="#4170B7"/>
<path d="M107.551 37.3884C107.199 37.0298 106.681 36.6135 106.149 36.6135C105.676 36.6135 106.437 37.5165 106.508 37.587C106.86 37.9456 107.379 38.3619 107.91 38.3619C108.384 38.3619 107.622 37.4589 107.551 37.3884Z" fill="#4170B7"/>
<path d="M110.093 34.6218C109.51 34.6218 110.522 36.8313 111.226 36.8313C111.809 36.8313 110.797 34.6218 110.093 34.6218Z" fill="#4170B7"/>
<path d="M109.53 17.106C108.992 17.106 108.345 17.5543 107.961 17.8937C107.775 18.0538 107.276 18.5469 107.814 18.5469C108.352 18.5469 108.998 18.0986 109.382 17.7592C109.568 17.5991 110.067 17.106 109.53 17.106Z" fill="#4170B7"/>
<path d="M125.701 27.2825C125.15 27.2825 124.401 27.7116 124.344 28.3072C124.28 28.9604 124.99 29.1653 125.502 29.1653C126.053 29.1653 126.802 28.7363 126.86 28.1406C126.924 27.4874 126.213 27.2825 125.701 27.2825Z" fill="#4170B7"/>
<path d="M122.25 44.1387C120.624 44.1387 120.739 46.4058 122.359 46.4058C123.979 46.4058 123.87 44.1387 122.25 44.1387Z" fill="#4170B7"/>
<path d="M105.01 55.8394C104.491 55.8394 103.665 56.0315 103.377 56.5182C103.089 57.0049 103.633 57.2035 104.043 57.2035C104.562 57.2035 105.388 57.0113 105.676 56.5246C105.964 56.0379 105.42 55.8394 105.01 55.8394Z" fill="#4170B7"/>
<path d="M93.2753 52.5217C92.5583 52.5217 93.6466 54.7248 94.4277 54.7248C95.1447 54.7248 94.0563 52.5217 93.2753 52.5217Z" fill="#4170B7"/>
<path d="M90.8553 50.1843C90.6569 49.5247 90.0359 49.166 89.3829 49.166C88.7299 49.166 88.5123 49.9666 88.6659 50.4725C88.8644 51.1321 89.4853 51.4908 90.1383 51.4908C90.7913 51.4908 91.009 50.6902 90.8553 50.1843Z" fill="#4170B7"/>
<path d="M126.309 51.1704C124.926 51.1704 125.886 53.4568 126.93 53.4568C128.313 53.4568 127.352 51.1704 126.309 51.1704Z" fill="#4170B7"/>
<path d="M131.603 54.3471C131.341 53.9756 130.323 53.8347 129.92 53.8347C129.58 53.8347 129.068 53.8411 129.356 54.251C129.619 54.6224 130.637 54.7633 131.04 54.7633C131.379 54.7633 131.891 54.7569 131.603 54.3471Z" fill="#4170B7"/>
<path d="M140.822 36.8313C140.265 36.8313 139.631 37.1643 139.196 37.4909C139.023 37.619 138.447 38.1378 139.004 38.1378C139.561 38.1378 140.195 37.8048 140.63 37.4781C140.803 37.3501 141.379 36.8313 140.822 36.8313Z" fill="#4170B7"/>
<path d="M150.854 20.5194C150.572 20.0711 149.945 19.5459 149.381 19.5459C148.818 19.5459 148.991 20.1607 149.189 20.4745C149.471 20.9228 150.098 21.448 150.662 21.448C151.225 21.448 151.052 20.8332 150.854 20.5194Z" fill="#4170B7"/>
<path d="M155.431 44.145C154.957 44.145 154.067 44.3179 153.779 44.747C153.479 45.1953 154.035 45.2658 154.388 45.2658C154.861 45.2658 155.751 45.0929 156.039 44.6638C156.34 44.2155 155.783 44.145 155.431 44.145Z" fill="#4170B7"/>
<path d="M158.158 49.8C157.608 49.8 156.827 50.1395 156.628 50.6967C156.423 51.2666 156.955 51.5292 157.448 51.5292C157.998 51.5292 158.779 51.1898 158.978 50.6326C159.183 50.0626 158.651 49.8 158.158 49.8Z" fill="#4170B7"/>
<path d="M150.713 62.6023C149.625 62.6023 150.502 64.9783 151.488 64.9783C152.576 64.9783 151.699 62.6023 150.713 62.6023Z" fill="#4170B7"/>
<path d="M147.979 64.3122C147.614 63.96 147.096 63.5693 146.564 63.5693C146.104 63.5693 146.891 64.4595 146.955 64.5236C147.32 64.8758 147.838 65.2665 148.37 65.2665C148.831 65.2665 148.043 64.3763 147.979 64.3122Z" fill="#4170B7"/>
<path d="M161.82 65.5547C161.628 65.2985 160.508 65.3626 160.252 65.3626C160.156 65.3626 159.195 65.3562 159.349 65.5611C159.541 65.8173 160.661 65.7532 160.917 65.7532C161.013 65.7532 161.974 65.7597 161.82 65.5547Z" fill="#4170B7"/>
<path d="M165.29 62.9929C165.149 62.551 164.099 62.4741 163.76 62.4741C163.465 62.4741 162.652 62.5254 162.806 62.9993C162.947 63.4412 163.997 63.518 164.336 63.518C164.631 63.518 165.444 63.4668 165.29 62.9929Z" fill="#4170B7"/>
<path d="M177.569 53.9628C177.46 53.2903 176.794 52.842 176.148 52.842C175.501 52.842 175.072 53.4697 175.174 54.0781C175.283 54.7505 175.949 55.1988 176.596 55.1988C177.242 55.1988 177.671 54.5712 177.569 53.9628Z" fill="#4170B7"/>
<path d="M164.893 85.2158C164.733 84.7483 163.709 84.7227 163.35 84.7227C163.03 84.7227 162.243 84.8443 162.409 85.3247C162.569 85.7922 163.593 85.8178 163.952 85.8178C164.272 85.8178 165.06 85.6961 164.893 85.2158Z" fill="#4170B7"/>
<path d="M170.181 44.1258C170.059 43.5686 169.157 43.3765 168.702 43.3765C168.248 43.3765 167.556 43.575 167.678 44.1386C167.799 44.6958 168.702 44.8879 169.157 44.8879C169.611 44.8879 170.303 44.6893 170.181 44.1258Z" fill="#4170B7"/>
<path d="M186.819 67.7321C186.538 67.3095 185.571 67.239 185.129 67.239C184.739 67.239 184.272 67.3799 184.553 67.8026C184.835 68.2253 185.802 68.2957 186.243 68.2957C186.634 68.2957 187.101 68.1548 186.819 67.7321Z" fill="#4170B7"/>
<path d="M189.406 67.7512C188.83 67.7512 188.228 67.8857 187.684 68.0842C187.562 68.1291 186.787 68.4813 187.306 68.4813C187.882 68.4813 188.484 68.3468 189.028 68.1483C189.15 68.1035 189.924 67.7512 189.406 67.7512Z" fill="#4170B7"/>
<path d="M192.274 68.5454C192.114 68.27 191.768 67.5847 191.39 67.5847C191.192 67.5847 191.774 68.7439 191.819 68.8208C191.979 69.0961 192.325 69.7814 192.703 69.7814C192.901 69.7814 192.319 68.6222 192.274 68.5454Z" fill="#4170B7"/>
<path d="M184.585 81.3027C184.003 81.3027 183.394 81.5269 182.914 81.8535C182.754 81.9624 182.12 82.5324 182.703 82.5324C183.286 82.5324 183.894 82.3082 184.374 81.9816C184.534 81.8727 185.168 81.3027 184.585 81.3027Z" fill="#4170B7"/>
<path d="M178.068 93.9194C178.068 93.9194 178.03 93.8874 178.004 93.8746C177.927 93.8297 177.844 93.7849 177.754 93.7465C177.703 93.7273 177.652 93.708 177.601 93.6888C177.55 93.6696 177.498 93.6504 177.441 93.6312C177.21 93.5607 176.993 93.5159 176.749 93.4711C176.685 93.4583 176.615 93.4519 176.551 93.4455C176.487 93.4391 176.416 93.4263 176.352 93.4198C176.244 93.4134 176.128 93.4006 176.013 93.4006C175.917 93.4006 175.821 93.4006 175.719 93.407C175.706 93.407 175.693 93.407 175.68 93.407C175.603 93.4134 175.52 93.4263 175.443 93.4391C175.418 93.4391 175.392 93.4519 175.366 93.4583C175.29 93.4583 175.232 93.4903 175.2 93.5479C175.155 93.58 175.155 93.6248 175.2 93.676C175.258 93.7401 175.328 93.7849 175.411 93.8169C175.52 93.8746 175.635 93.9194 175.751 93.9578C176 94.0347 176.256 94.0859 176.512 94.1179C176.532 94.1179 176.544 94.1307 176.564 94.1307C176.73 94.1692 176.897 94.2012 177.069 94.2204C177.229 94.246 177.383 94.2588 177.543 94.2588C177.633 94.2588 177.716 94.2588 177.806 94.2588C177.927 94.2588 178.042 94.2268 178.151 94.1756C178.171 94.1499 178.19 94.1243 178.209 94.0987C178.196 94.009 178.145 93.9514 178.062 93.913L178.068 93.9194Z" fill="#4170B7"/>
<path d="M169.278 103.09C167.601 103.09 168.645 104.948 169.842 104.948C171.519 104.948 170.475 103.09 169.278 103.09Z" fill="#4170B7"/>
<path d="M170.008 107.682C169.374 107.682 168.683 108.066 168.555 108.732C168.433 109.347 168.945 109.898 169.56 109.898C170.175 109.898 170.885 109.514 171.013 108.848C171.135 108.233 170.623 107.682 170.008 107.682Z" fill="#4170B7"/>
<path d="M157.921 107.234C157.326 107.234 156.628 107.522 156.577 108.201C156.532 108.829 157.211 109.322 157.787 109.322C158.363 109.322 159.08 109.034 159.131 108.355C159.176 107.727 158.498 107.234 157.921 107.234Z" fill="#4170B7"/>
<path d="M193.605 92.2221C193.087 91.9467 192.402 91.8699 191.832 91.8699C191.352 91.8699 191.378 92.1068 191.749 92.299C192.267 92.5743 192.952 92.6512 193.522 92.6512C194.002 92.6512 193.977 92.4142 193.605 92.2221Z" fill="#4170B7"/>
<path d="M192.159 98.4343C191.57 98.4343 192.434 100.74 193.08 100.74C193.669 100.74 192.805 98.4343 192.159 98.4343Z" fill="#4170B7"/>
<path d="M190.526 100.349C189.431 100.349 190.404 102.693 191.41 102.693C192.504 102.693 191.531 100.349 190.526 100.349Z" fill="#4170B7"/>
<path d="M202.101 96.4043C201.531 96.4043 200.91 96.6541 200.43 96.9487C200.276 97.0447 199.617 97.5443 200.174 97.5443C200.731 97.5443 201.364 97.2945 201.845 96.9999C201.998 96.9038 202.658 96.4043 202.101 96.4043Z" fill="#4170B7"/>
<path d="M197.939 81.9561C197.389 81.9561 196.755 82.2506 196.269 82.4812C196.121 82.5517 195.43 82.8911 195.929 82.8911C196.48 82.8911 197.114 82.5965 197.6 82.3659C197.747 82.2955 198.439 81.9561 197.939 81.9561Z" fill="#4170B7"/>
<path d="M200.993 81.4885C199.335 81.4885 199.732 83.7108 201.172 83.7108C202.83 83.7108 202.434 81.4885 200.993 81.4885Z" fill="#4170B7"/>
<path d="M213.592 75.8848C213.4 75.2828 212.798 74.8088 212.164 74.8088C211.531 74.8088 211.358 75.5197 211.518 76.0129C211.71 76.6149 212.312 77.0888 212.945 77.0888C213.579 77.0888 213.752 76.3779 213.592 75.8848Z" fill="#4170B7"/>
<path d="M218.528 84.8701C218.099 84.8701 217.26 85.1327 217.292 85.6835C217.324 86.2727 218.195 86.3559 218.611 86.3559C219.027 86.3559 219.879 86.0933 219.847 85.5426C219.815 84.9534 218.944 84.8701 218.528 84.8701Z" fill="#4170B7"/>
<path d="M218.554 89.6027C218.515 89.4554 218.464 89.3209 218.387 89.1864L218.214 88.8918C218.093 88.7125 217.952 88.546 217.792 88.3987C217.721 88.3411 217.651 88.2834 217.58 88.2322C217.465 88.1489 217.344 88.0977 217.203 88.0913H217.145C217.056 88.0913 216.998 88.1169 216.959 88.1874C216.895 88.2514 216.87 88.3283 216.883 88.4243C216.883 88.546 216.902 88.6677 216.947 88.783C216.985 88.9303 217.036 89.0648 217.113 89.1993C217.171 89.2953 217.228 89.3914 217.286 89.4939C217.408 89.6732 217.548 89.8397 217.709 89.987C217.779 90.0446 217.849 90.1023 217.92 90.1535C218.035 90.2368 218.157 90.288 218.297 90.2944H218.355C218.445 90.2944 218.502 90.2688 218.541 90.1983C218.605 90.1343 218.63 90.0574 218.618 89.9614C218.618 89.8397 218.598 89.718 218.554 89.6027Z" fill="#4170B7"/>
<path d="M169.086 119.447C167.825 119.447 169.137 121.567 170.059 121.567C171.321 121.567 170.008 119.447 169.086 119.447Z" fill="#4170B7"/>
<path d="M157.48 116.885C156.916 116.885 156.289 117.314 155.924 117.711C155.726 117.929 155.329 118.518 155.905 118.518C156.481 118.518 157.096 118.089 157.461 117.692C157.659 117.474 158.056 116.885 157.48 116.885Z" fill="#4170B7"/>
<path d="M156.513 130.405C155.95 130.405 155.175 130.655 154.938 131.225C154.714 131.769 155.213 132.115 155.713 132.115C156.276 132.115 157.051 131.865 157.288 131.295C157.512 130.751 157.012 130.405 156.513 130.405Z" fill="#4170B7"/>
<path d="M154.695 132.851C154.33 132.416 153.703 132.051 153.12 132.051C152.537 132.051 152.864 132.723 153.062 132.96C153.427 133.395 154.055 133.76 154.637 133.76C155.22 133.76 154.893 133.088 154.695 132.851Z" fill="#4170B7"/>
<path d="M141.385 122.431C140.86 122.431 140.054 122.79 139.849 123.302C139.618 123.866 140.182 124.007 140.624 124.007C141.149 124.007 141.955 123.648 142.16 123.136C142.39 122.572 141.827 122.431 141.385 122.431Z" fill="#4170B7"/>
<path d="M96.3994 75.7502L118.223 89.1865L135.822 63.2234L113.71 50.6965" fill="#E2E2E3"/>
<path d="M113.71 50.6965L96.3994 75.7502L116.911 68.0202L113.71 50.6965Z" fill="#F1F2F2"/>
<path d="M168.817 32.0536L195.315 71.4018L248.598 39.8285L221.818 0" fill="#E2E2E3"/>
<path d="M221.818 0L168.817 32.0536L213.323 34.8139L221.818 0Z" fill="#F1F2F2"/>
<path d="M167.665 113.779L186.051 149.342L233.643 125.685L215.353 91.2488" fill="#E2E2E3"/>
<path d="M215.353 91.2488L167.665 113.779L205.122 119.991L215.353 91.2488Z" fill="#F1F2F2"/>
<path d="M76.7777 134.638L97.8719 161.498L133.3 135.733L109.927 110.5" fill="#E2E2E3"/>
<path d="M109.927 110.5L76.7777 134.638L106.386 134.631L109.927 110.5Z" fill="#F1F2F2"/>
<path d="M90.0743 233.162C90.8133 233.162 91.4123 232.563 91.4123 231.824C91.4123 231.084 90.8133 230.485 90.0743 230.485C89.3354 230.485 88.7363 231.084 88.7363 231.824C88.7363 232.563 89.3354 233.162 90.0743 233.162Z" fill="white"/>
</g>
</svg>
