<svg width="22" height="22" viewBox="0 0 22 22" fill="none" xmlns="http://www.w3.org/2000/svg">
<g clip-path="url(#clip0_628_82)">
<path d="M6.81657 15.7189C6.81657 14.1487 6.72539 12.5715 6.83706 11.0092C7.02013 8.44344 8.81689 6.82368 11.1911 6.92864C13.4629 7.02934 15.0221 8.66115 15.1395 11.1638C15.1854 12.1489 15.0808 13.1438 15.0016 14.1303C14.9684 14.5466 14.7952 14.9877 14.2729 14.9253C13.8071 14.8693 13.6049 14.4579 13.5894 14.0239C13.559 13.1985 13.6049 12.3701 13.571 11.5454C13.4904 9.59443 12.6019 8.54839 11.0448 8.52499C9.47777 8.50159 8.46842 9.54479 8.41894 11.4447C8.3525 14.0055 8.39774 16.5692 8.39138 19.1314C8.38996 19.7101 8.39562 20.2895 8.35886 20.866C8.32776 21.3667 8.24012 21.917 7.6068 21.9511C6.93319 21.9872 6.83636 21.4135 6.82858 20.9249C6.80102 19.1896 6.81798 17.4542 6.81586 15.7189H6.81657Z" fill="#8E949C"/>
<path d="M18.6573 14.8366C18.6573 16.2408 18.6743 17.6449 18.6488 19.0484C18.6382 19.6193 18.5944 20.3384 17.8501 20.3448C17.132 20.3511 17.0019 19.6788 16.9977 19.0782C16.9807 16.6833 16.9892 14.2877 16.9736 11.8928C16.9439 7.15483 14.6369 4.95142 9.91031 5.14006C9.66433 5.14999 9.42047 5.20885 9.1745 5.22233C8.75676 5.24573 8.29803 5.22233 8.18706 4.73796C8.04923 4.138 8.46555 3.81249 8.98153 3.69831C10.7917 3.29692 12.5913 3.29621 14.2785 4.1692C16.8881 5.51947 18.4233 7.64558 18.5965 10.6277C18.6778 12.0261 18.6106 13.4339 18.6106 14.8366C18.6262 14.8366 18.641 14.8366 18.6566 14.8366H18.6573Z" fill="#8E949C"/>
<path d="M18.2912 3.01823C18.3337 3.56216 17.9746 3.73591 17.5406 3.74939C16.9228 3.76853 16.4973 3.31892 16.0032 3.03241C11.288 0.304218 6.10907 1.50485 2.97712 5.97548C2.53748 6.6031 2.37066 8.17818 1.20369 7.40447C0.251596 6.7733 1.27155 5.75493 1.70059 5.05214C4.81063 -0.0454051 12.1807 -1.57864 17.1101 1.80838C17.5781 2.13034 18.111 2.40408 18.2905 3.01823H18.2912Z" fill="#8E949C"/>
<path d="M3.24585 14.7437C3.31653 13.1751 3.37944 11.6064 3.46002 10.0384C3.50738 9.1129 3.76042 8.23282 4.26863 7.46336C4.64537 6.89319 4.92881 5.84503 5.85263 6.35705C6.61742 6.78043 6.03852 7.52861 5.73742 8.09595C5.09562 9.30651 4.9903 10.6036 5.00514 11.9461C5.0313 14.3452 5.00868 16.7443 4.98182 19.1435C4.97546 19.7477 4.79309 20.3831 4.06011 20.3455C3.46991 20.3157 3.36177 19.7073 3.35329 19.213C3.32784 17.7244 3.3441 16.2351 3.3441 14.7459C3.31158 14.7452 3.27907 14.7437 3.24726 14.743L3.24585 14.7437Z" fill="#8E949C"/>
<path d="M21.9634 13.0601C21.9634 14.3735 21.9803 15.6876 21.9513 17.0003C21.9443 17.3152 21.81 17.6754 21.4205 17.7237C20.9526 17.7818 20.6077 17.5145 20.5539 17.0712C20.4656 16.3415 20.4642 15.6004 20.443 14.8636C20.3666 12.1715 20.7886 9.42704 19.5375 6.86195C19.3227 6.42085 19.2124 5.85635 19.8464 5.6365C20.4274 5.4351 20.7186 5.88755 20.9717 6.3322C22.1726 8.44129 22.0171 10.7638 21.9634 13.0601Z" fill="#8E949C"/>
<path d="M11.8852 14.1459C11.8407 15.0494 11.8209 15.955 11.7396 16.8549C11.7099 17.184 11.4788 17.467 11.1119 17.5131C10.615 17.5755 10.2991 17.2606 10.256 16.8315C10.0651 14.9466 10.0637 13.0545 10.2503 11.1681C10.2842 10.822 10.5458 10.5518 10.8836 10.5022C11.3692 10.4312 11.6936 10.7596 11.736 11.1908C11.8329 12.1701 11.8428 13.1587 11.8845 14.1466L11.8852 14.1459Z" fill="#8E949C"/>
<path d="M1.51188 13.9728C1.51188 14.9522 1.53237 15.9323 1.50269 16.911C1.48855 17.3613 1.1726 17.7173 0.759104 17.7613C0.286944 17.8109 0.0254175 17.3932 0.0197629 16.9705C-0.00638969 14.8494 -0.00638969 12.7275 0.0225902 10.6064C0.0282448 10.2178 0.16749 9.74546 0.692662 9.76532C1.13655 9.78234 1.4631 10.1 1.47724 10.549C1.51258 11.6893 1.48926 12.8318 1.48926 13.9736C1.49703 13.9736 1.50481 13.9736 1.51258 13.9736L1.51188 13.9728Z" fill="#8E949C"/>
<path d="M13.593 19.6632C13.6191 19.2533 13.6191 18.8399 13.6771 18.435C13.7379 18.0102 13.9231 17.6279 14.4214 17.6187C14.9536 17.6088 15.0985 18.0371 15.1226 18.4491C15.1706 19.2689 15.1869 20.093 15.1523 20.9128C15.1325 21.3894 15.0844 21.9766 14.4002 21.9567C13.7584 21.9376 13.6729 21.3972 13.6361 20.8979C13.6057 20.4887 13.6297 20.076 13.6297 19.6647C13.617 19.6647 13.6043 19.6647 13.5923 19.664L13.593 19.6632Z" fill="#8E949C"/>
<path d="M11.8077 20.8362C11.8112 21.3454 11.7115 21.8532 11.1567 21.9759C10.5601 22.1078 10.2859 21.6667 10.2307 21.1469C10.1692 20.5639 10.2526 19.9448 10.9771 19.876C11.5702 19.82 11.7511 20.3192 11.8084 20.8362H11.8077Z" fill="#8E949C"/>
</g>
<defs>
<clipPath id="clip0_628_82">
<rect width="22" height="22" fill="white"/>
</clipPath>
</defs>
</svg>
