<svg width="33" height="33" viewBox="0 0 33 33" fill="none" xmlns="http://www.w3.org/2000/svg">
<path d="M32.4311 12.504L29.9944 10.5277V5.16366C29.9944 4.58647 29.5244 4.10966 28.9555 4.10966H26.8218C26.2467 4.10966 25.7829 4.58647 25.7829 5.16366V7.10852L17.4401 0.332857C16.8897 -0.11258 16.1104 -0.11258 15.56 0.332857L6.85856 7.39712L0.569022 12.504C-0.544172 13.4011 0.0866378 15.2205 1.50287 15.2205H3.06134V31.3692C3.06134 32.2726 3.78491 33.0003 4.66928 33.0003H28.9555C29.5244 33.0003 29.9944 32.5298 29.9944 31.9464V15.2205H31.4911C32.9135 15.2205 33.5381 13.4011 32.4311 12.504ZM25.8694 28.8471H20.3901V17.7237H25.8694V28.8471Z" fill="white"/>
</svg>
