<svg width="222" height="164" viewBox="0 0 222 164" fill="none" xmlns="http://www.w3.org/2000/svg">
<defs>
<linearGradient id="paint0_linear_756_238" x1="26.3431" y1="111.7" x2="65.612" y2="111.7" gradientUnits="userSpaceOnUse">
<stop stop-color="#3F74B9"/>
<stop offset="0.42" stop-color="#507EC0"/>
<stop offset="1" stop-color="#5A84C3"/>
</linearGradient>
<linearGradient id="paint1_linear_756_238" x1="190.615" y1="75.0069" x2="222" y2="75.0069" gradientUnits="userSpaceOnUse">
<stop stop-color="#A6C1E5"/>
<stop offset="0.24" stop-color="#99B8E1"/>
<stop offset="0.68" stop-color="#87ADDB"/>
<stop offset="1" stop-color="#81A9DA"/>
</linearGradient>
<linearGradient id="paint2_linear_756_238" x1="52.7056" y1="32.7791" x2="2.39658" y2="32.7791" gradientUnits="userSpaceOnUse">
<stop offset="0.28" stop-color="#2A2B69"/>
<stop offset="1" stop-color="#212054"/>
</linearGradient>
<clipPath id="clip0_756_238">
<rect width="222" height="164" fill="white"/>
</clipPath>
</defs>
<g clip-path="url(#clip0_756_238)">
<path d="M190.615 105.675C195.179 105.694 199.75 105.76 204.314 105.734C208.681 105.707 212.774 104.081 215.91 101.439C212.885 104.134 208.91 105.779 204.562 105.779H177.362C167.952 105.779 160.258 98.0683 160.258 88.6457V61.4075C160.258 51.9914 167.952 44.2803 177.362 44.2803H200.686C202.775 44.7327 203.705 45.4343 203.705 45.4343C204.53 46.0179 205.27 46.7851 206.18 47.1457C212.152 49.5129 216.67 55.7356 216.742 62.096C216.82 69.3678 216.984 76.6462 216.69 83.9049C216.454 89.6817 214.365 94.5734 208.675 97.6421C204.713 99.7731 200.66 100.016 196.39 99.9699C191.885 99.924 190.681 101.163 190.615 105.675Z" fill="#A6C1E5"/>
<path d="M133.889 73.0463V73.8069C133.889 78.1346 130.353 81.6755 126.031 81.6755H123.831V85.4261C123.831 86.4687 122.98 87.3211 121.939 87.3211H120.092C119.051 87.3211 118.2 86.4687 118.2 85.4261V81.6755H111.396V85.4261C111.396 86.4687 110.538 87.3211 109.497 87.3211H107.657C106.609 87.3211 105.758 86.4687 105.758 85.4261V81.6755H96.4992V84.895C96.4992 91.1308 91.3983 96.2388 85.171 96.2388H62.1348C55.9011 96.2388 50.8066 91.1308 50.8066 84.895V62.3123C50.8066 56.0765 55.9011 50.9685 62.1348 50.9685H85.171C91.3983 50.9685 96.4992 56.0765 96.4992 62.3123V65.1778H126.031C130.353 65.1778 133.889 68.7186 133.889 73.0463Z" fill="#E84947"/>
<path d="M27.646 134.768C27.6591 139.817 27.6721 144.866 27.6852 149.915C27.6852 150.558 27.3186 151.155 26.7423 151.43C23.5403 152.951 20.3121 152.722 17.0642 151.306C16.7696 151.174 16.5273 150.958 16.3505 150.689C14.2355 147.437 11.7668 144.342 10.2411 140.834C8.87912 137.699 8.40766 134.087 8.04097 130.631C7.20936 122.835 5.867 98.1929 5.50685 93.3472C5.50685 93.2816 5.50685 93.216 5.50685 93.1504C6.0438 83.9049 3.07096 75.2561 1.12618 66.404C-1.1853 55.8864 -0.131055 45.8343 6.40394 36.8904C6.70515 36.4773 7.18971 36.1888 7.70046 36.2085C8.57791 36.2413 9.19343 37.0281 9.78931 37.6051C11.9829 39.7428 14.2813 41.7361 16.7958 43.4738C18.4 44.5819 19.1989 45.9589 18.6292 47.9326C17.3327 52.4767 18.8257 56.1618 21.8182 59.6305C24.8041 63.0926 27.2793 66.9154 27.312 71.7743C27.312 71.8529 27.3186 71.9382 27.3316 72.0169C29.008 81.387 29.833 90.8096 29.5842 100.33C29.5449 101.93 29.5842 103.537 28.6085 104.888C28.4186 105.157 28.3204 105.478 28.3204 105.806C28.2877 111.51 28.4186 129.693 27.6721 134.519C27.659 134.605 27.6525 134.683 27.6525 134.768H27.646Z" fill="#5983C3"/>
<path d="M51.9787 62.3779C51.1668 65.945 48.6196 68.1744 45.9152 70.2727C44.1603 72.7119 42.4054 75.1446 40.6505 77.5838C39.1903 79.4723 38.3522 82.5672 35.3073 81.9771C32.0529 81.3345 29.4926 79.1641 27.9669 76.1216C27.2531 74.7053 26.8144 73.1578 26.4739 71.5906C26.3822 71.1513 26.2447 70.7251 26.0679 70.3186C24.8565 67.5974 23.7434 64.8237 22.3421 62.2074C21.2813 60.2272 19.8669 58.4043 18.4394 56.6535C16.2196 53.9389 16.9203 50.9488 17.634 48.0965C17.6733 47.9457 17.6995 47.8014 17.7322 47.6637C17.8763 46.9228 17.8763 46.3392 17.6602 45.8146C17.6602 45.8146 17.658 45.8102 17.6536 45.8015C17.6013 45.6572 17.5227 45.5195 17.431 45.3884C17.3328 45.2376 17.2084 45.0933 17.0709 44.9491C16.9072 44.7786 16.7042 44.6015 16.475 44.4245C16.2916 44.2868 16.1083 44.1426 15.9249 43.9983C13.0176 41.7492 10.2216 39.3559 7.38623 37.0084C6.91476 36.6215 6.50224 36.1691 6.17483 35.6642C5.53312 34.6675 4.93069 33.6249 4.0598 32.9168C1.57807 30.9103 2.16085 28.5301 3.92229 27.1006C6.34508 25.1269 9.28517 23.5794 12.2449 22.5565C15.8726 21.3041 19.9324 21.2386 23.488 19.8484C30.5141 17.0945 37.7039 18.0452 44.8675 18.1239C45.5092 18.1305 46.1575 18.2026 46.7992 18.3075C47.729 18.4649 48.6523 18.6944 49.5821 18.9239C49.9554 19.0157 50.3221 19.1075 50.6953 19.1927C51.0686 19.2845 51.4418 19.3698 51.815 19.4419C52.1359 19.855 52.4306 20.2812 52.7056 20.714C53.7467 22.3401 54.5194 24.1106 55.22 25.9138C50.3876 32.1889 45.2342 38.228 42.6412 45.9523C41.8357 48.3719 41.6589 50.5226 43.3942 52.2996C45.7973 54.752 52.758 58.4108 51.9787 62.3779Z" fill="#2A2B69"/>
<path d="M65.612 150.873C61.9581 153.089 58.2716 152.892 54.5653 151.017C53.5373 149.712 52.6729 148.237 51.4681 147.128C46.688 142.729 44.0164 137.326 43.1127 130.919C42.4514 126.192 40.1464 122.356 36.9444 119.051C35.8312 117.903 34.9145 116.585 34.168 115.176C32.6947 112.382 31.2214 109.596 29.7153 106.828C29.3814 106.225 28.792 105.766 28.3206 105.242C28.0849 97.5567 27.9473 89.8652 27.5741 82.1868C27.3908 78.4296 26.7687 74.6855 26.3496 70.9348C28.0914 74.6986 29.5385 79.2164 33.8079 80.5148C37.8546 81.7409 39.7928 78.2853 40.6637 77.5837C43.2633 84.2589 59.902 133.654 65.6185 150.879L65.612 150.873Z" fill="url(#paint0_linear_756_238)"/>
<path d="M45.9153 70.2726C47.9321 67.6629 49.9489 65.0597 51.9657 62.45C54.4474 64.3712 56.8571 66.3973 59.4305 68.1809C63.5558 71.0332 64.669 70.8955 68.4735 67.6301C68.8009 67.3481 69.1152 67.0268 69.4164 66.7317C70.1563 65.9973 72.8738 63.9646 70.7391 68.5546C69.6128 70.9742 69.017 71.466 71.6558 72.3315C74.1899 73.1643 76.8354 73.6429 79.4153 74.3511C80.7184 74.7052 81.5435 75.2363 80.2142 76.6986C76.6389 80.6525 72.9458 82.9213 67.8448 80.0951C63.6082 77.7477 59.3454 75.4462 55.0564 73.1905C54.2445 72.7643 47.8994 70.948 45.9153 70.2791V70.2726Z" fill="#F8BBB5"/>
<path d="M74.3011 17.4944C74.2225 17.7436 74.1374 17.9927 74.0588 18.2353C74.1571 17.8485 74.2618 17.5993 74.3011 17.4944Z" fill="#F8BBB5"/>
<path d="M113.079 76.2395C109.157 76.2395 105.228 76.1608 101.312 76.2723C99.0596 76.3379 98.8828 75.0592 98.9286 73.3478C98.9679 71.7544 98.8304 70.2791 101.188 70.2988C109.032 70.3643 116.884 70.3774 124.728 70.2856C127.308 70.2529 127.033 71.8725 127.112 73.5511C127.21 75.4658 126.581 76.3444 124.525 76.2788C120.714 76.1674 116.897 76.2461 113.086 76.2461L113.079 76.2395Z" fill="#D62C29"/>
<path d="M11.4919 164H46.1314C46.1314 164 44.5729 159.738 37.3242 158.118C30.0754 156.499 27.4366 150.735 27.4366 150.735H16.1084L11.4919 164Z" fill="#A6C1E5"/>
<path d="M49.5691 164H84.2085C84.2085 164 82.6501 159.738 75.4013 158.118C68.1526 156.499 65.5137 150.735 65.5137 150.735H54.1855L49.5691 164Z" fill="#A6C1E5"/>
<path d="M190.615 83.2886C177.833 83.2886 167.428 72.8759 167.428 60.0698V43.3164C167.428 30.5169 177.827 20.0977 190.615 20.0977C203.403 20.0977 213.802 30.5104 213.802 43.3164V60.0698C213.802 72.8693 203.403 83.2886 190.615 83.2886ZM190.615 27.317C181.801 27.317 174.631 34.4971 174.631 43.323V60.0764C174.631 68.9023 181.801 76.0823 190.615 76.0823C199.429 76.0823 206.599 68.9023 206.599 60.0764V43.323C206.599 34.4971 199.429 27.317 190.615 27.317Z" fill="#A6C1E5"/>
<path d="M221.666 61.4075V88.6457C221.666 93.6488 219.492 98.1732 216.048 101.314C216.002 101.36 215.956 101.399 215.91 101.439C212.774 104.081 208.681 105.707 204.314 105.734C199.75 105.76 195.179 105.694 190.615 105.675C190.68 101.163 191.885 99.924 196.39 99.9699C200.66 100.016 204.713 99.7731 208.675 97.6421C214.365 94.5733 216.454 89.6817 216.69 83.9049C216.984 76.6462 216.82 69.3678 216.742 62.096C216.67 55.7356 212.152 49.5129 206.18 47.1457C205.27 46.7851 204.53 46.0179 203.705 45.4343C203.705 45.4343 202.775 44.7327 200.686 44.2803H204.562C205.374 44.2803 206.173 44.3393 206.952 44.4508C207.142 44.477 207.326 44.5032 207.509 44.5426C207.66 44.5622 207.804 44.5885 207.948 44.6212C208.17 44.6671 208.393 44.713 208.616 44.7721C208.878 44.8311 209.133 44.9032 209.388 44.9819C209.644 45.054 209.899 45.1393 210.148 45.2245H210.154C210.371 45.3032 210.587 45.3819 210.803 45.4671C210.908 45.5065 211.012 45.5524 211.117 45.5983C211.274 45.6638 211.438 45.7294 211.589 45.8015C211.778 45.8868 211.962 45.972 212.145 46.0704C212.309 46.1491 212.473 46.2343 212.63 46.3261C212.924 46.4769 213.219 46.6474 213.507 46.8244C213.664 46.9228 213.815 47.0212 213.965 47.1261C214.358 47.3818 214.738 47.6572 215.105 47.9457C215.229 48.0375 215.347 48.1359 215.465 48.2342C215.648 48.3916 215.832 48.549 216.008 48.7129C216.12 48.8047 216.231 48.9096 216.336 49.0145C216.395 49.067 216.447 49.126 216.506 49.1784C216.637 49.303 216.768 49.4342 216.886 49.5653C217.037 49.7227 217.187 49.8801 217.325 50.044C217.429 50.1554 217.528 50.2604 217.613 50.3784C217.704 50.4767 217.79 50.5817 217.875 50.6866C218.346 51.2767 218.785 51.8931 219.178 52.5422C219.25 52.6603 219.322 52.7849 219.387 52.9029C219.459 53.0275 219.531 53.1521 219.603 53.2832C219.623 53.3291 219.649 53.375 219.675 53.4209C219.767 53.5979 219.859 53.7815 219.95 53.9586C219.97 54.011 219.996 54.0569 220.016 54.1028C220.114 54.2995 220.199 54.4963 220.284 54.6995C220.383 54.929 220.474 55.1585 220.566 55.388C221.018 56.5945 221.345 57.8666 221.515 59.1846C221.548 59.4469 221.581 59.7092 221.601 59.978C221.646 60.4501 221.666 60.9288 221.666 61.4075Z" fill="#A6C1E5"/>
<path d="M222 88.7965C221.993 93.7406 219.662 98.2191 216.048 101.314C216.002 101.36 215.956 101.399 215.91 101.439C212.774 104.081 208.681 105.707 204.314 105.734C199.75 105.76 195.179 105.694 190.615 105.675C190.68 101.163 191.885 99.924 196.39 99.9699C200.66 100.016 204.713 99.7731 208.675 97.6421C214.365 94.5733 216.454 89.6817 216.689 83.9049C216.984 76.6462 216.82 69.3678 216.742 62.096C216.67 55.7356 212.152 49.5129 206.18 47.1457C205.27 46.7851 201.249 45.1327 200.686 44.2803H204.562C205.374 44.2803 206.173 44.3393 206.952 44.4508C207.142 44.477 207.326 44.5032 207.509 44.5426C207.66 44.5622 207.804 44.5885 207.948 44.6212C208.17 44.6671 208.393 44.713 208.616 44.7721C208.878 44.8311 209.133 44.9032 209.388 44.9819C209.644 45.054 209.899 45.1393 210.148 45.2245H210.154C210.371 45.3032 210.587 45.3819 210.803 45.4671C210.908 45.5065 211.012 45.5524 211.117 45.5983C211.274 45.6638 211.438 45.7294 211.589 45.8015C211.778 45.8868 211.962 45.972 212.145 46.0704C212.309 46.1491 212.473 46.2343 212.63 46.3261C212.924 46.4769 213.219 46.6474 213.507 46.8244C213.664 46.9228 213.815 47.0212 213.965 47.1261C214.358 47.3818 214.738 47.6572 215.105 47.9457C215.229 48.0375 215.347 48.1359 215.465 48.2342C215.648 48.3916 215.832 48.549 216.008 48.7129C216.12 48.8047 216.231 48.9096 216.336 49.0145C216.395 49.067 216.447 49.126 216.506 49.1784C216.637 49.303 216.768 49.4342 216.886 49.5653C217.037 49.7227 217.187 49.8801 217.325 50.044C217.429 50.1554 217.528 50.2604 217.613 50.3784C217.704 50.4767 217.79 50.5817 217.875 50.6866C218.346 51.2767 218.785 51.8931 219.178 52.5422C219.25 52.6603 219.322 52.7849 219.387 52.9029C219.459 53.0275 219.531 53.1521 219.603 53.2832C219.623 53.3291 219.649 53.375 219.675 53.4209C219.767 53.5979 219.859 53.7815 219.95 53.9586C219.97 54.011 219.996 54.0569 220.016 54.1028C220.114 54.2995 220.199 54.4963 220.284 54.6995C220.383 54.929 220.474 55.1585 220.566 55.388C221.018 56.5945 221.345 57.8666 221.515 59.1846C221.548 59.4469 221.581 59.7092 221.601 59.978C221.646 60.4501 221.666 60.9288 221.666 61.4075V69.4399H221.659C221.666 69.4989 221.666 69.5514 221.666 69.6104C221.849 76.0036 222.007 82.3968 222 88.7965Z" fill="url(#paint1_linear_756_238)"/>
<path d="M190.622 58.5549H190.615C187.563 58.5549 185.088 61.0327 185.088 64.0891V83.1179C185.088 86.1743 187.563 88.6521 190.615 88.6521H190.622C193.674 88.6521 196.148 86.1743 196.148 83.1179V64.0891C196.148 61.0327 193.674 58.5549 190.622 58.5549Z" fill="#2A2B69"/>
<path d="M52.7056 20.714C52.5877 20.7468 52.4633 20.773 52.3389 20.7796C49.0648 21.0484 45.8366 21.7369 42.7197 22.7926C37.2652 24.6417 31.9481 27.7039 27.8949 31.8414C25.5834 34.202 23.9202 37.192 22.1129 39.9394C20.4759 42.418 18.9436 44.9556 17.7322 47.6637C17.8763 46.9228 17.8763 46.3392 17.6602 45.8146C17.6602 45.8146 17.658 45.8102 17.6536 45.8015C17.5947 45.6638 17.5227 45.5261 17.431 45.3884C17.3328 45.2376 17.2084 45.0933 17.0709 44.9491C16.9072 44.7786 16.7042 44.6015 16.475 44.4245C16.2916 44.2868 16.1083 44.1426 15.9249 43.9983C13.0176 41.7492 10.2216 39.3559 7.38623 37.0084C6.91476 36.6215 6.50224 36.1691 6.17483 35.6642C5.53312 34.6675 4.93069 33.6249 4.0598 32.9168C1.57807 30.9103 2.16085 28.5301 3.92229 27.1006C6.34508 25.1269 9.28517 23.5794 12.2449 22.5565C15.8726 21.3041 19.9324 21.2386 23.488 19.8484C30.5141 17.0945 37.7039 18.0452 44.8675 18.1239C45.5092 18.1305 46.1575 18.2026 46.7992 18.3075C47.729 18.4649 48.6523 18.6944 49.5821 18.9239C49.9554 19.0157 50.3221 19.1075 50.6953 19.1927C51.0686 19.2845 51.4418 19.3698 51.815 19.4419C52.1359 19.855 52.4306 20.2812 52.7056 20.714Z" fill="url(#paint2_linear_756_238)"/>
<path d="M48.7703 6.60966C49.1043 6.62933 49.4317 6.54409 49.7394 6.41951C51.8872 5.54085 54.3231 4.97038 55.9208 3.49503C64.047 -4.02598 73.5483 1.75084 76.5277 9.99313C76.914 11.0685 75.9776 12.6291 75.4603 14.0389C75.3163 14.4257 75.0609 14.7667 74.7401 15.029C72.8607 16.5568 70.5624 16.4978 68.336 16.1175C64.6953 15.488 61.9123 16.0257 59.7646 19.5272C58.0228 22.3664 55.3315 21.8615 53.3212 18.7272C53.2558 18.6289 53.1837 18.5305 53.1052 18.4387C50.6824 15.6847 47.8012 13.2717 46.3541 9.79642C45.9808 8.90465 46.1511 7.82273 46.8779 7.18669C47.3625 6.76048 47.9845 6.56376 48.7638 6.61622L48.7703 6.60966Z" fill="#E84947"/>
<path d="M75.3097 14.5044C74.9757 15.488 74.6483 16.4715 74.3209 17.4485C74.3209 17.4485 74.3209 17.4551 74.3209 17.4617C74.3144 17.4682 74.3144 17.4813 74.3078 17.4944C74.2685 17.5994 74.1638 17.8485 74.0655 18.2354C74.059 18.2485 74.059 18.2616 74.0524 18.2747C73.8756 18.9632 73.6988 20.0386 73.8167 21.3828L73.9673 22.2287L72.1666 22.3992C70.1825 22.9959 63.5231 24.5958 62.5802 23.8221C59.8496 21.6123 57.9376 22.6418 56.1696 25.0286C55.9208 25.3695 55.5475 25.6187 55.2332 25.9072C52.7449 24.4647 51.7824 22.2156 51.8282 19.4353C52.2931 19.1468 52.7646 18.8518 53.2361 18.5567C53.8843 18.937 54.6046 19.2321 55.1743 19.6976C56.9554 21.1533 58.1995 20.7796 59.3192 18.8321C61.6831 14.7011 63.6934 14.111 68.3818 14.9306C70.6016 15.3175 72.9982 14.6814 75.3162 14.5044H75.3097Z" fill="#F8BBB5"/>
<path d="M73.378 19.4288C71.7869 19.4288 70.4249 17.0551 70.3594 16.9436L70.9291 16.6223C70.9291 16.6223 72.4744 19.2779 73.7709 18.6878L74.0394 19.2845C73.8168 19.3894 73.5941 19.4288 73.3715 19.4288H73.378Z" fill="#886B7A"/>
</g>
</svg>
