<svg width="25" height="25" viewBox="0 0 25 25" fill="none" xmlns="http://www.w3.org/2000/svg">
<g clip-path="url(#clip0_622_16)">
<path d="M15.5174 22.042C15.5174 23.6771 14.2002 25 12.5818 25C10.9633 25 9.64185 23.6771 9.64185 22.042H15.5174Z" fill="#8E949C"/>
<path d="M23.7646 5.40424C23.4547 4.90979 22.8048 4.71461 22.2925 5.01389C21.8018 5.30448 21.5952 5.99844 21.9051 6.49723C22.5078 7.47312 22.8392 8.54442 22.8478 9.6591C22.8521 10.2707 22.7574 10.8649 22.6412 11.4634C22.5809 11.7887 22.5336 12.14 22.4002 12.4436C22.2925 12.6952 22.1118 12.9424 21.9611 13.1723C21.6426 13.6624 21.8621 14.3694 22.3485 14.6556C22.8736 14.9636 23.5021 14.7554 23.8206 14.2653C24.6858 12.9381 25.0129 11.2335 25 9.6591C24.9871 8.1584 24.5524 6.67072 23.7646 5.3999V5.40424Z" fill="#8E949C"/>
<path d="M1.23537 5.26545C1.54528 4.771 2.19525 4.57582 2.70747 4.87509C3.19817 5.16569 3.40479 5.85965 3.09487 6.35844C2.49225 7.33432 2.16081 8.40563 2.1522 9.5203C2.1479 10.1319 2.2426 10.7261 2.35882 11.3246C2.41908 11.6499 2.46643 12.0012 2.59986 12.3048C2.70747 12.5564 2.88826 12.8036 3.03891 13.0335C3.35744 13.5236 3.13791 14.2306 2.65152 14.5168C2.12638 14.8248 1.49793 14.6166 1.17941 14.1265C0.314222 12.8036 -0.012913 11.0991 2.26428e-07 9.5203C0.0129134 8.01961 0.447659 6.53193 1.23537 5.26111V5.26545Z" fill="#8E949C"/>
<path d="M22.9942 19.1707C22.9942 19.444 22.8866 19.6868 22.7101 19.8647C22.5336 20.0425 22.2926 20.1509 22.0257 20.1509H3.13365C2.59991 20.1509 2.16516 19.7129 2.16516 19.1707C2.16516 18.9018 2.27277 18.6589 2.44925 18.4811C2.58269 18.3466 2.75486 18.2512 2.94426 18.2165H2.983C3.03035 18.2165 3.082 18.2078 3.13365 18.1948H3.14226C4.66602 17.8175 6.0133 12.2658 6.0133 12.2658V8.93477H6.03482C6.02191 8.76561 6.0133 8.59646 6.0133 8.42297C6.0133 5.46062 7.94598 2.95368 10.6104 2.11225C10.6061 2.07321 10.6061 2.02984 10.6061 1.99081C10.6061 0.88914 11.4885 0 12.5818 0C13.6751 0 14.5532 0.88914 14.5532 1.99081C14.5532 2.02984 14.5532 2.07321 14.5532 2.11225C17.2177 2.95368 19.1504 5.46062 19.1504 8.42297C19.1504 8.59646 19.1417 8.76561 19.1288 8.93477H19.1504V12.2658C19.1504 12.2658 20.4976 17.8175 22.0214 18.1948H22.03C22.0817 18.2078 22.1333 18.2165 22.1807 18.2165H22.2194C22.6627 18.3033 22.9985 18.698 22.9985 19.1707H22.9942Z" fill="#8E949C"/>
</g>
<defs>
<clipPath id="clip0_622_16">
<rect width="25" height="25" fill="white"/>
</clipPath>
</defs>
</svg>
