<svg width="36" height="32" viewBox="0 0 36 32" fill="none" xmlns="http://www.w3.org/2000/svg">
<g clip-path="url(#clip0_632_6)">
<path d="M33.4388 11.1113C34.5375 11.1113 34.9293 9.66109 33.9741 9.11509L18.3936 0.219199C18.0612 0.0279266 17.6553 0.0279266 17.323 0.219199L1.74243 9.11509C0.787238 9.66109 1.17561 11.1113 2.27776 11.1113H4.55553V22.9041H3.62833C3.23995 22.9041 2.88307 23.064 2.62765 23.3179C2.37223 23.5718 2.21478 23.923 2.21478 24.3091C2.21478 25.0811 2.84808 25.714 3.62833 25.714H32.0882C32.4766 25.714 32.83 25.5541 33.0854 25.3002C33.3443 25.0463 33.5018 24.6951 33.5018 24.3091C33.5018 23.537 32.865 22.9041 32.0882 22.9041H31.161V11.1113H33.4388ZM19.2159 21.6104V23.2136H16.8121V21.6139C14.4924 21.2626 13.1663 19.8542 13.0088 17.931H15.8534C16.0844 18.9569 16.8821 19.6072 18.0787 19.6072C19.5622 19.6072 20.0346 18.9013 20.0346 18.1014C20.0346 17.1242 19.5168 16.6477 17.6553 16.1191C14.2684 15.1523 13.2782 13.9073 13.2782 12.0363C13.2782 10.0158 14.7688 8.75341 16.6722 8.39869V7.105H19.0549V8.3813C21.5496 8.75341 22.4313 10.2871 22.5818 11.8416H19.7372C19.5937 11.2852 19.3313 10.3914 17.7988 10.3914C16.5112 10.3914 16.1473 11.1461 16.1473 11.7581C16.1473 12.631 16.6197 13.0205 18.7645 13.6222C21.7595 14.4533 22.8862 15.6531 22.8862 17.778C22.8862 20.028 21.4166 21.287 19.2159 21.6104Z" fill="#1D2939"/>
<path d="M34.5865 28.2632H1.41355C0.632867 28.2632 0 28.8922 0 29.6682C0 30.4441 0.632867 31.0731 1.41355 31.0731H34.5865C35.3671 31.0731 36 30.4441 36 29.6682C36 28.8922 35.3671 28.2632 34.5865 28.2632Z" fill="#1D2939"/>
</g>
<defs>
<clipPath id="clip0_632_6">
<rect width="36" height="31" fill="white" transform="translate(0 0.0765991)"/>
</clipPath>
</defs>
</svg>
