<svg width="22" height="22" viewBox="0 0 22 22" fill="none" xmlns="http://www.w3.org/2000/svg">
<g clip-path="url(#clip0_622_23)">
<path d="M5.49731 1.16098L7.51101 4.48345C7.96329 5.23248 7.96329 6.17412 7.51101 6.92314L7.0049 7.75242C6.41801 8.71546 6.60108 9.95135 7.43025 10.7111L11.7538 14.6595C12.583 15.4193 13.8375 15.4942 14.7528 14.8361C15.5012 14.3011 16.4973 14.2422 17.2996 14.6916L20.7724 16.6177C22.1884 17.4042 22.4415 19.373 21.2139 20.427C20.4493 21.0851 19.1948 21.6736 17.138 21.9625C10.9085 22.84 0.419972 8.61916 0.0484593 6.18482C-0.139989 4.94357 0.129223 1.97421 2.05678 0.470809C3.15516 -0.385222 4.77582 -0.0321094 5.49731 1.16098Z" fill="#8E949C"/>
</g>
<defs>
<clipPath id="clip0_622_23">
<rect width="22" height="22" fill="white"/>
</clipPath>
</defs>
</svg>
