<svg width="33" height="33" viewBox="0 0 33 33" fill="none" xmlns="http://www.w3.org/2000/svg">
<path d="M33 30.7292C33 31.3536 32.745 31.9214 32.3287 32.3343C31.9123 32.7471 31.3398 33 30.7101 33H2.28466C1.02003 33 0 31.9833 0 30.7292C0 30.1047 0.255007 29.5369 0.666141 29.1292C4.72544 25.1345 10.3044 22.6779 16.4714 22.6779C22.6384 22.6779 27.9519 25.021 31.9904 28.8505C32.1985 29.0466 32.4015 29.2428 32.5993 29.4492C32.6045 29.4492 32.6045 29.4595 32.6097 29.4647C32.8543 29.826 33 30.2595 33 30.7292Z" fill="white"/>
<path d="M16.4818 19.0651C21.3363 19.0651 25.2717 14.7972 25.2717 9.53253C25.2717 4.26786 21.3363 0 16.4818 0C11.6272 0 7.69183 4.26786 7.69183 9.53253C7.69183 14.7972 11.6272 19.0651 16.4818 19.0651Z" fill="white"/>
</svg>
