<svg width="22" height="22" viewBox="0 0 22 22" fill="none" xmlns="http://www.w3.org/2000/svg">
<g clip-path="url(#clip0_622_35)">
<path d="M21.6827 17.6539L17.7045 21.6583C17.5188 21.8472 17.275 21.9477 17.0312 21.9598C17.0157 21.9638 16.9963 21.9638 16.977 21.9638H16.8764C16.6326 21.9477 16.3888 21.8472 16.203 21.6583L12.2287 17.6539C11.8146 17.2357 11.803 16.5482 12.2055 16.1181C12.608 15.6879 13.2697 15.6758 13.6838 16.0939L15.9128 18.3414V1.08955C15.9128 0.486477 16.381 0 16.9577 0C17.244 0 17.5072 0.120614 17.6968 0.317617C17.8864 0.51462 18.0025 0.788012 18.0025 1.08955V18.3333L20.2238 16.0939C20.6379 15.6758 21.3035 15.6879 21.7021 16.1181C22.1045 16.5482 22.0968 17.2357 21.6827 17.6539Z" fill="#8E949C"/>
<path d="M0.526245 3.64254L2.5463 2.09868L2.70883 8.82091L4.82176 8.83699L4.75597 0.0160819L2.51921 0L0.541724 1.60015" fill="#8E949C"/>
<path d="M5.04588e-05 15.8527C-0.081216 14.2727 1.84209 12.9097 3.30489 12.9138C4.76768 12.9178 6.54781 14.1119 6.61359 15.5432C6.65616 16.5121 5.89381 17.2639 5.66162 17.477C4.76768 18.3695 3.87375 19.2621 2.97595 20.1546H6.59038V21.9116L0.340596 22C0.359945 21.3648 0.313507 20.7255 0.336726 20.0903C1.34675 18.9284 2.84051 17.7343 3.95502 16.5684C4.40005 16.102 4.38457 15.3019 3.86214 14.928C3.71122 14.8195 3.52934 14.7511 3.32424 14.7471C2.84825 14.735 2.08976 15.0808 1.97367 15.8407" fill="#8E949C"/>
</g>
<defs>
<clipPath id="clip0_622_35">
<rect width="22" height="22" fill="white"/>
</clipPath>
</defs>
</svg>
