<svg width="26" height="22" viewBox="0 0 26 22" fill="none" xmlns="http://www.w3.org/2000/svg">
<g clip-path="url(#clip0_622_21)">
<path d="M25.7334 19.2014L14.6892 0.93172C13.9378 -0.312689 12.0592 -0.312689 11.3078 0.93172L0.263612 19.2014C-0.487815 20.4458 0.451469 21.9999 1.95432 21.9999H24.0427C25.5455 21.9999 26.4848 20.4458 25.7334 19.2014ZM13.8954 8.61522V14.3713H12.2652L12.038 8.61522H13.8954ZM12.9985 18.2608C12.3592 18.2608 11.8411 17.766 11.8411 17.1553C11.8411 16.5447 12.3592 16.0498 12.9985 16.0498C13.6378 16.0498 14.1559 16.5447 14.1559 17.1553C14.1559 17.766 13.6378 18.2608 12.9985 18.2608Z" fill="#8E949C"/>
</g>
<defs>
<clipPath id="clip0_622_21">
<rect width="26" height="22" fill="white"/>
</clipPath>
</defs>
</svg>
