<svg width="33" height="33" viewBox="0 0 33 33" fill="none" xmlns="http://www.w3.org/2000/svg">
<path d="M32.0025 18.548L31.1173 18.1634C29.9505 17.6573 29.991 15.9899 31.1799 15.5409L32.0835 15.1986C33.5429 14.6483 33.1675 12.486 31.6068 12.4602L30.6406 12.4436C29.3708 12.4216 28.7689 10.8665 29.6947 9.99603L30.3995 9.33535C31.5369 8.26613 30.3627 6.41293 28.9107 6.98711L28.0125 7.34045C26.8292 7.80789 25.6789 6.60064 26.2016 5.44308L26.5991 4.56157C27.2414 3.139 25.447 1.87654 24.3262 2.96049L23.6306 3.63405C22.7177 4.5174 21.1921 3.842 21.2326 2.57034L21.262 1.60602C21.3117 0.0454267 19.1695 -0.434896 18.5493 0.996871L18.1646 1.8839C17.6585 3.04883 15.9911 3.01018 15.5402 1.82133L15.1998 0.915897C14.6476 -0.543475 12.4852 -0.16621 12.4594 1.39254L12.4429 2.36055C12.4226 3.63037 10.8657 4.23215 9.99699 3.30463L9.33445 2.59979C8.26702 1.46247 6.41375 2.63843 6.98611 4.0886L7.34131 4.98852C7.80693 6.17 6.59963 7.3202 5.44203 6.79755L4.56048 6.40004C3.13786 5.75777 1.87536 7.55208 2.96119 8.67468L3.63293 9.37032C4.51631 10.2831 3.84089 11.8087 2.57102 11.7683L1.60482 11.7388C0.0441707 11.6891 -0.43433 13.8294 0.995651 14.4514L1.88272 14.8361C3.04952 15.3421 3.00904 17.0095 1.82015 17.4585L0.916514 17.8008C-0.542913 18.3529 -0.167474 20.5134 1.39318 20.5392L2.35938 20.5558C3.62925 20.5779 4.23105 22.1329 3.3035 23.0034L2.60047 23.6659C1.46311 24.7333 2.63728 26.5865 4.08934 26.0142L4.98745 25.659C6.17082 25.1915 7.32106 26.3988 6.79839 27.5582L6.40087 28.4397C5.75858 29.8604 7.55295 31.1229 8.67375 30.0389L9.36942 29.3672C10.2822 28.4839 11.8079 29.1593 11.7674 30.4291L11.738 31.3952C11.6883 32.954 13.8305 33.4343 14.4507 32.0025L14.8354 31.1155C15.3415 29.9506 17.0089 29.9911 17.4579 31.1799L17.8002 32.0835C18.3524 33.5429 20.513 33.1675 20.5406 31.6069L20.5571 30.6407C20.5774 29.3691 22.1325 28.7691 23.003 29.6948L23.6655 30.3996C24.733 31.5369 26.5862 30.3628 26.0139 28.9108L25.6587 28.0109C25.1931 26.8294 26.4004 25.6792 27.558 26.2019L28.4395 26.5994C29.8621 27.2416 31.1246 25.4473 30.0388 24.3247L29.3671 23.6309C28.4837 22.7163 29.1591 21.1925 30.429 21.2312L31.3952 21.2625C32.9558 21.3103 33.4343 19.17 32.0025 18.548ZM16.4991 6.11664C21.7976 6.11664 26.1703 10.0696 26.831 15.1876H18.7591C18.3063 14.4091 17.4653 13.8865 16.4991 13.8865C16.4052 13.8865 16.3114 13.892 16.2193 13.9012L12.2478 7.02207C13.5453 6.43869 14.9844 6.11664 16.4991 6.11664ZM6.08064 16.5347C6.08064 13.1871 7.65786 10.2095 10.1111 8.30477L14.1655 15.3274C13.987 15.6808 13.8876 16.0783 13.8876 16.4997C13.8876 16.9984 14.0274 17.4659 14.2722 17.8615L10.2326 24.8584C7.71123 22.9555 6.08064 19.9356 6.08064 16.5347ZM16.4991 26.9527C15.0378 26.9527 13.6483 26.6527 12.3877 26.1098L16.4291 19.1111C16.4531 19.113 16.4752 19.113 16.4991 19.113C17.5187 19.113 18.4002 18.5314 18.8309 17.6812H26.8549C26.2844 22.8948 21.8657 26.9527 16.4991 26.9527Z" fill="white"/>
</svg>
