<svg width="162" height="150" viewBox="0 0 162 150" fill="none" xmlns="http://www.w3.org/2000/svg">
<defs>
<linearGradient id="paint0_linear_715_181" x1="47.3073" y1="54.9815" x2="63.667" y2="71.4299" gradientUnits="userSpaceOnUse">
<stop stop-color="#F2A19D"/>
<stop offset="1" stop-color="#FABEB7"/>
</linearGradient>
<linearGradient id="paint1_linear_715_181" x1="30.0661" y1="15.9819" x2="30.0661" y2="23.3898" gradientUnits="userSpaceOnUse">
<stop stop-color="#F2A19D"/>
<stop offset="1" stop-color="#FABEB7"/>
</linearGradient>
<linearGradient id="paint2_linear_715_181" x1="29.5681" y1="55.8899" x2="29.5681" y2="21.7927" gradientUnits="userSpaceOnUse">
<stop stop-color="#88ADDB"/>
<stop offset="1" stop-color="#A6C1E5"/>
</linearGradient>
<clipPath id="clip0_715_181">
<rect width="162" height="150" fill="white"/>
</clipPath>
</defs>
<g clip-path="url(#clip0_715_181)">
<path d="M46.167 138.642C46.167 138.642 43.1383 146.879 42.2869 150H70.5086C70.5086 150 69.006 146.425 62.816 144.558C56.626 142.695 54.9261 138.815 54.9261 138.815L46.167 138.642Z" fill="#436AA0"/>
<path d="M20.7118 138.642C20.7118 138.642 17.6831 146.879 16.8317 150H45.0534C45.0534 150 43.5508 146.425 37.3608 144.558C31.1708 142.695 29.4709 138.815 29.4709 138.815L20.7118 138.642Z" fill="#5A84C3"/>
<path d="M46.7533 67.5935C46.7533 67.5935 54.6167 89.8053 53.6945 106.095C53.5885 107.959 53.562 109.828 53.6945 111.689L54.9261 138.815L44.2461 138.859C44.2461 138.859 34.7121 127.337 36.6419 113.84C38.5717 100.343 37.1752 67.5935 37.1752 67.5935" fill="#1E1C4E"/>
<path d="M20.7118 138.642C20.7118 138.642 18.6494 124.418 21.4336 118.505C22.2762 116.715 22.8036 114.798 22.8831 112.826C23.0334 109.128 23.764 103.212 26.5835 97.8023C27.9742 95.1358 28.4014 92.0794 27.8622 89.1227C27.0962 84.9119 25.8558 79.2534 24.3061 76.3641C21.6516 71.4119 32.2786 57.5896 32.2786 57.5896L42.5343 70.1548C42.5343 70.1548 45.5748 99.1268 43.0263 106.165C40.5456 113.022 36.8629 123.824 32.6262 138.859" fill="#2A2B69"/>
<path d="M101.512 89.9167L102.213 138.331H93.0618C93.0618 138.331 83.9109 125.409 88.5777 114.124" fill="#8DB1DD"/>
<path d="M80.5492 65.3314C81.0883 70.6148 82.2904 75.8102 84.1288 80.7976C84.2054 81.0027 84.2673 81.2108 84.3144 81.4218C84.8654 83.8598 85.2101 86.3418 85.2837 88.8384C85.3545 91.2676 84.8241 93.6529 84.2231 95.1034C83.0063 98.0308 79.0201 101.746 77.9772 110.493C77.7739 112.193 77.3025 115.334 77.1699 117.265C76.9106 121.069 74.0469 126.974 76.3361 138.244H85.8347L99.1721 103.686C99.4756 102.895 99.782 102.107 100.103 101.324C100.869 99.452 103.462 92.2581 101.07 85.6561C98.2912 77.9904 95.8724 61.4106 95.8724 61.4106L80.5492 65.3314Z" fill="#A6C1E5"/>
<path d="M92.9616 138.141L89.3407 149.898L117.465 149.719C117.465 149.719 113.556 144.573 107.749 143.345C101.945 142.118 102.213 138.141 102.213 138.141" fill="#1D1C4E"/>
<path d="M76.3656 138.244L72.7448 150L100.869 149.821C100.869 149.821 96.9596 144.676 91.1526 143.448C85.3457 142.22 85.8642 138.244 85.8642 138.244" fill="#2A2B69"/>
<path d="M80.0012 28.1926C80.0012 28.1926 93.8189 27.7794 94.4641 26.241C94.4641 26.241 98.6772 44.7459 108.797 55.0284C108.797 55.0284 88.6955 67.9306 77.326 56.7661" fill="#272862"/>
<path d="M94.4642 26.2411C94.4642 26.2411 106.809 25.2389 110.839 40.4941C110.839 40.4941 109.758 48.7781 110.839 50.4836C110.839 50.4836 102.101 46.8676 95.8931 37.5316C89.6855 28.1956 94.4642 26.2381 94.4642 26.2381V26.2411Z" fill="#282964"/>
<path d="M124.427 22.4521C105.23 22.4521 89.3407 36.8488 87.1193 55.3655H0V94.7988H8.17277V69.8412H13.2314V85.41H21.3777V69.8412H88.2241C92.6375 85.5976 107.195 97.1928 124.424 97.1928C145.145 97.1928 162 80.4285 162 59.8196C162 39.2106 145.145 22.4521 124.424 22.4521H124.427ZM124.427 83.5727C111.26 83.5727 100.545 72.9181 100.545 59.8196C100.545 46.721 111.26 36.0723 124.427 36.0723C137.594 36.0723 148.309 46.7269 148.309 59.8196C148.309 72.9122 137.597 83.5727 124.427 83.5727Z" fill="#E4A924"/>
<path d="M112.754 32.1748C112.754 32.1748 112.751 32.1513 112.742 32.1074C112.666 31.7147 111.199 28.1427 110.17 25.986C109.958 25.5435 110.12 25.0131 110.542 24.764C112.312 23.715 116.608 21.4879 116.496 24.6351C116.496 24.6351 116.413 26.8738 118.037 23.4893C118.037 23.4893 118.107 23.3487 118.222 23.2373C118.455 23.0117 118.812 22.8827 118.753 24.1076C118.664 25.9449 116.131 28.0372 116.131 28.0372C116.131 28.0372 115.179 29.2327 116.988 31.9785" fill="#FABDB6"/>
<path d="M121.534 30.3992C121.534 30.3992 117.324 32.1925 109.054 32.4035C109.054 32.4035 110.969 36.8019 110.839 40.5088C110.71 44.2156 104.823 46.5921 104.823 46.5921L110.677 50.3927C110.789 50.466 110.91 50.5217 111.037 50.5568C112.949 51.0931 128.033 54.6241 121.537 30.3962L121.534 30.3992Z" fill="#2A2B69"/>
<path d="M90.4161 55.471C90.4161 55.471 93.2091 57.7625 94.9297 54.5655C96.6502 51.3685 96.8683 51.2279 97.2012 51.3041C97.9319 51.4711 96.4234 54.5977 96.4234 54.5977C96.4234 54.5977 94.4435 57.279 103.921 55.7611C103.921 55.7611 105.091 58.9581 99.6701 61.0239C99.6701 61.0239 95.6132 61.5719 88.9901 59.1837" fill="#FABEB7"/>
<path d="M85.9526 26.5046L83.4572 32.3242C75.6173 54.4745 91.7242 52.8042 91.7242 52.8042L86.4594 69.2902C82.7118 70.6587 77.5766 65.2258 75.252 62.4333C74.4713 61.4956 73.5314 60.6956 72.459 60.1124C55.6686 50.9757 78.6107 28.4445 78.6107 28.4445" fill="#2A2B69"/>
<path d="M95.9166 10.1564C94.8825 9.20107 93.3652 8.44505 91.1408 8.3923C89.0637 8.34249 87.4227 8.99888 86.1588 9.89556C83.5632 11.7329 82.2904 14.9269 82.6734 18.0741C82.753 18.7363 82.8473 19.3722 82.9297 19.8762C83.0594 20.6938 82.9415 21.5289 82.588 22.2703C81.9722 22.8739 81.3123 23.4483 80.5286 23.8234C80.0778 24.0402 79.5887 24.1809 79.0879 24.2131C78.9642 24.2219 78.9642 24.4123 79.0879 24.4065C80.34 24.3274 81.3683 23.6475 82.2786 22.827C81.8279 23.4864 81.1591 24.1457 80.1839 24.4651C77.8387 25.2299 77.8033 28.4386 77.8033 28.4386C77.8033 28.4386 86.7687 30.1323 91.406 27.9698C95.4128 26.1002 91.7684 24.4211 92.8202 22.0241C93.9662 19.4103 97.0745 18.1297 97.5842 16.1899C98.1528 14.0273 97.5665 11.6772 95.9196 10.1593L95.9166 10.1564Z" fill="#4A7BBE"/>
<path d="M91.3235 20.5737C91.3235 20.5737 94.8913 24.9018 90.4102 28.3537C90.4102 28.3537 93.43 27.6944 94.4641 26.238C94.4641 26.238 93.8484 25.1274 93.9839 21.7078" fill="#F3A6A1"/>
<path d="M96.3792 11.7915L92.0866 15.6888C91.2587 16.4419 90.7166 17.4851 90.6872 18.6016C90.6695 19.2492 90.8197 19.9495 91.3206 20.5737C92.7495 22.3582 95.13 24.4358 97.6608 18.6426L99.1634 18.5693C99.1634 18.5693 99.131 17.7781 98.2677 16.228C98.147 16.0082 98.0703 15.7679 98.0615 15.5189C98.0291 14.7541 97.7993 12.9226 96.3792 11.7915Z" fill="#FABEB7"/>
<path d="M92.6287 14.8391C92.667 14.7219 92.4814 14.6721 92.4431 14.7893C92.1691 15.6156 91.5445 16.272 91.2352 17.0866C90.9288 17.9013 90.8757 18.8009 91.0761 19.6477C91.1055 19.7679 91.2912 19.7181 91.2617 19.5979C91.0643 18.7569 91.1291 17.8661 91.4502 17.0603C91.7625 16.2779 92.3606 15.6449 92.6258 14.842L92.6287 14.8391Z" fill="#4A7BBE"/>
<path d="M97.8464 16.2514C97.8464 16.2514 97.8287 16.2514 97.8199 16.2514C97.0303 16.2339 96.4027 15.4192 96.3762 15.3841L96.6325 15.1907C96.6325 15.1907 97.1923 15.9174 97.8258 15.9291C98.1115 15.9291 98.3826 15.7885 98.6271 15.4954L98.8746 15.7005C98.5711 16.0668 98.2235 16.2514 97.8434 16.2514H97.8464Z" fill="#493C4A"/>
<path d="M31.4419 60.1448C31.4419 60.1448 35.4635 66.4918 41.0348 66.1226C42.1278 66.0494 43.1737 65.642 44.0959 65.056C45.9402 63.8809 49.5905 61.7301 44.9473 66.2164C44.5584 66.5915 44.4641 67.1951 44.7588 67.6464C45.2744 68.4346 46.9007 69.4192 51.6087 69.8529C51.6087 69.8529 54.2279 71.2302 45.8459 74.6909C45.8459 74.6909 43.7423 75.7194 38.3095 70.0346C37.6437 69.3372 36.7804 68.8654 35.8347 68.6603C33.3982 68.1328 29.3973 66.5944 28.4103 65.6684" fill="#FABEB7"/>
<path d="M46.7593 55.5265L54.9674 60.8128C55.3769 61.0765 55.7982 61.3198 56.2195 61.5659C57.0798 62.0699 58.9566 63.6289 57.1299 67.0163C54.7759 71.3854 56.1017 71.7488 56.1017 71.7488C56.1017 71.7488 57.1388 72.4227 58.7032 69.2346C59.0449 68.5401 60.3059 68.7774 59.4604 69.7034C55.7275 73.7971 58.8623 75.9098 62.0177 73.0557C63.8149 71.4323 64.5838 68.9532 64.1655 66.5738C63.8414 64.7307 62.9663 62.4069 60.8215 60.2355C56.2902 55.6525 51.7855 51.3684 51.7855 51.3684" fill="url(#paint0_linear_715_181)"/>
<path d="M34.8742 31.5273C34.8742 31.5273 33.239 35.4071 52.4895 51.2279L46.8505 55.89L31.9751 40.8809" fill="#A6C1E5"/>
<path d="M38.1151 6.12441L24.1412 14.8069C24.1412 14.8069 26.7634 18.7717 31.1296 16.0523C34.777 13.7813 39.1286 9.10747 40.4632 7.63352C40.9051 7.14416 41.2027 6.52879 41.2322 5.8724C41.244 5.58523 41.2086 5.27755 41.0849 4.97866C40.5015 3.5721 38.3066 3.91788 38.1357 5.42699C38.1121 5.63212 38.1062 5.86361 38.118 6.12148L38.1151 6.12441Z" fill="#2A2A68"/>
<path d="M27.4498 21.907C27.4498 21.907 28.8964 17.5174 29.1675 15.9819L32.6852 17.198L32.4024 22.2059C32.4024 22.2059 29.5357 25.0601 27.4498 21.907Z" fill="url(#paint1_linear_715_181)"/>
<path d="M30.4461 12.7702C28.5311 12.4156 25.3816 12.6354 28.7579 15.5364C29.0643 15.8002 29.2794 16.1225 29.4768 16.4741C29.9865 17.3855 30.7938 19.0294 34.9067 17.4558C34.9067 17.4558 36.589 17.1715 38.3302 13.4999C38.4038 13.3416 38.5629 13.2391 38.7397 13.2361C39.0343 13.2303 39.5027 13.1277 39.8092 12.5973C40.0478 12.1841 39.765 11.8442 39.4232 11.6098C39.1846 11.4457 38.9754 11.2435 38.8104 11.012C38.5423 10.634 38.504 10.1359 38.7043 9.71682L38.9076 9.29192C38.9076 9.29192 34.4677 7.58062 31.7837 12.1402C31.5097 12.6061 30.9764 12.8669 30.4432 12.7702H30.4461Z" fill="#FABEB7"/>
<path d="M37.1369 15.9146C37.0397 15.9146 36.9424 15.9058 36.8482 15.8853C36.0527 15.7241 35.6019 14.9446 35.5813 14.9095L35.8612 14.7512C35.8612 14.7512 36.2648 15.4398 36.913 15.5717C37.2813 15.645 37.6672 15.5336 38.0649 15.2318L38.2594 15.4867C37.8823 15.771 37.5081 15.9116 37.1369 15.9116V15.9146Z" fill="#866876"/>
<path d="M24.2032 13.7197L21.8226 10.3C20.9093 8.98721 21.3188 7.17921 22.7094 6.38216L33.2745 0.328125L36.9425 6.51695" fill="#5A84C3"/>
<path d="M24.0028 13.8545L21.6223 10.4349C21.1479 9.75503 20.9829 8.89937 21.1656 8.09354C21.3483 7.28477 21.8668 6.58442 22.5886 6.17125L33.3599 0L37.1487 6.39102L36.7333 6.63424L33.189 0.65053L22.8302 6.58442C22.2174 6.93606 21.7931 7.50747 21.637 8.1961C21.4808 8.88472 21.6193 9.58214 22.02 10.1594L24.4005 13.5791L24.0028 13.8516V13.8545Z" fill="#3B6FB7"/>
<path d="M38.3336 6.5332L38.0468 6.03136C37.9792 5.91319 37.8281 5.87185 37.7093 5.93904L16.6511 17.8469C16.5323 17.9141 16.4907 18.0644 16.5583 18.1826L16.8451 18.6844C16.9127 18.8026 17.0638 18.8439 17.1826 18.7767L38.2408 6.86884C38.3596 6.80165 38.4012 6.65138 38.3336 6.5332Z" fill="#3A6FB7"/>
<path d="M29.4031 22.2909C29.4031 22.2909 30.6287 22.5136 32.4141 21.7927C32.4141 21.7927 40.8314 50.0117 46.8505 55.8899L30.4284 55.5089L12.2886 53.1735L27.0608 22.2909" fill="url(#paint2_linear_715_181)"/>
<path d="M33.3658 57.1236L25.0045 72.3701C25.0045 72.3701 18.4551 69.8178 16.6756 63.5615C15.9979 61.1821 14.4836 59.1016 12.38 57.7829C8.25235 55.1955 3.09649 49.6015 9.3395 39.3278C18.7055 23.9143 27.6236 21.4763 27.6236 21.4763C27.6236 21.4763 28.2512 22.1972 29.7007 22.3085C29.7007 22.3085 16.1806 48.699 33.3629 57.1266L33.3658 57.1236Z" fill="#A6C1E5"/>
</g>
</svg>
