<svg width="21" height="23" viewBox="0 0 21 23" fill="none" xmlns="http://www.w3.org/2000/svg">
<g clip-path="url(#clip0_627_71)">
<path d="M8.67448 22.982C7.50911 22.982 6.34374 22.9466 5.18129 22.9968C4.53289 23.0233 4.31676 22.8049 4.37225 22.1643C4.41898 21.6299 4.34012 21.0808 4.38977 20.5465C4.53873 18.9169 3.96335 17.6505 2.80674 16.4903C-0.0205179 13.6622 -0.750699 9.56461 0.791443 5.92464C2.33359 2.28172 5.93484 -0.0681746 9.87197 -0.000275751C13.7361 0.0676231 17.1008 2.70387 17.9419 6.75418C18.3129 8.54612 19.1394 9.87753 20.2522 11.1735C21.3592 12.4636 21.2803 13.0127 19.7294 13.4171C18.529 13.7301 18.3216 14.347 18.3508 15.4689C18.4268 18.5509 18.383 18.5686 15.4184 19.5221C14.0282 19.9679 12.8628 20.5406 13.1315 22.3355C13.2337 23.0292 12.7752 22.985 12.3195 22.982C11.1074 22.9732 9.89242 22.9791 8.68032 22.9791L8.67448 22.982ZM12.3721 15.2593C12.6175 15.0467 13.0731 15.0142 13.0264 14.5714C12.9095 13.5057 13.3944 13.1514 14.3962 13.1278C14.9657 13.116 15.2403 12.6939 14.8635 12.1241C14.3436 11.3359 14.6211 10.775 15.3191 10.3144C16.0055 9.86277 16.0318 9.52328 15.249 9.08636C14.5919 8.7203 14.3728 8.0915 14.8226 7.36527C15.3104 6.57706 15.03 6.35565 14.183 6.34974C13.4265 6.34384 12.9563 5.88035 12.9592 5.06557C12.965 4.2006 12.6729 4.00576 11.9165 4.4899C11.2213 4.93568 10.6197 4.68474 10.2283 4.00576C9.79895 3.25887 9.45139 3.25592 9.01912 4.00576C8.62774 4.68474 8.029 4.93568 7.33094 4.4899C6.57448 4.00576 6.28532 4.2065 6.28824 5.06852C6.29117 5.88035 5.82969 6.36155 5.06738 6.34974C4.19117 6.33498 3.97503 6.62134 4.42482 7.35937C4.87753 8.10035 4.65264 8.72325 4.01008 9.08341C3.23025 9.52032 3.24193 9.85687 3.92538 10.3144C4.62343 10.7779 4.89214 11.3241 4.39562 12.1271C3.99548 12.7706 4.28463 13.0806 4.97976 13.1013C5.83845 13.1278 6.27948 13.5618 6.27364 14.4504C6.2678 15.0733 6.61829 15.3921 7.1557 15.0703C8.07281 14.5212 8.65111 14.7131 9.09214 15.6607C9.27614 16.0593 9.84569 16.0209 9.95959 15.8349C10.5875 14.8017 11.2739 14.3205 12.3692 15.2622L12.3721 15.2593Z" fill="#8E949C"/>
<path d="M13.1227 9.75084C13.1052 11.6638 11.4491 13.2934 9.56234 13.2521C7.66387 13.2137 6.07792 11.528 6.13633 9.61504C6.19474 7.75815 7.79238 6.19057 9.62659 6.18762C11.5221 6.18762 13.1402 7.83491 13.1227 9.74788V9.75084ZM9.56526 7.92052C8.62479 8.08879 7.90045 8.5877 7.89753 9.70065C7.89753 10.79 8.53716 11.4542 9.60907 11.466C10.6839 11.4778 11.3381 10.8254 11.3557 9.73903C11.3732 8.64084 10.6927 8.08584 9.56234 7.92052H9.56526Z" fill="#8E949C"/>
</g>
<defs>
<clipPath id="clip0_627_71">
<rect width="21" height="23" fill="white"/>
</clipPath>
</defs>
</svg>
