<svg width="38" height="35" viewBox="0 0 38 35" fill="none" xmlns="http://www.w3.org/2000/svg">
<g clip-path="url(#clip0_629_2)">
<path d="M34.807 30.949H3.22544C2.35091 30.949 1.64197 31.6486 1.64197 32.5116V32.5139C1.64197 33.377 2.35091 34.0766 3.22544 34.0766H34.807C35.6815 34.0766 36.3904 33.377 36.3904 32.5139V32.5116C36.3904 31.6486 35.6815 30.949 34.807 30.949Z" fill="#1D2939"/>
<path d="M1.11027 12.724C0.951502 12.6083 0.817365 12.463 0.715523 12.2962C0.613681 12.1294 0.546127 11.9444 0.516719 11.7518C0.487311 11.5593 0.496625 11.3629 0.544129 11.1739C0.591632 10.9849 0.676396 10.807 0.793579 10.6503L3.30864 7.28769C3.51122 7.01658 3.80117 6.82149 4.13091 6.73444C4.46065 6.64739 4.81058 6.67355 5.12327 6.80863L7.27077 7.73482C7.4607 7.81666 7.66571 7.8589 7.87296 7.8589C8.0802 7.8589 8.28521 7.81666 8.47514 7.73482L11.4803 6.4345C11.8205 6.28594 12.2046 6.26804 12.5575 6.38431L15.6874 7.41088C15.9468 7.49675 16.225 7.5109 16.4919 7.45178C16.7588 7.39266 17.0043 7.26254 17.2016 7.07554L19.1017 5.27562C19.2901 5.09771 19.5221 4.97116 19.775 4.90837C20.0278 4.84558 20.2929 4.84871 20.5442 4.91746L24.5942 6.02615C24.8991 6.10883 25.2226 6.09446 25.5188 5.98509L29.0972 4.65511C29.4166 4.54006 29.7659 4.53444 30.0889 4.63914L31.3118 5.02011C31.6498 5.12293 32.0137 5.10497 32.3396 4.96939C32.6655 4.83381 32.9326 4.58927 33.094 4.2787L34.6567 1.28796C34.7473 1.11494 34.8715 0.961219 35.0223 0.835588C35.1731 0.709957 35.3475 0.614874 35.5356 0.55577C35.7236 0.496666 35.9216 0.474698 36.1183 0.491122C36.3149 0.507545 36.5064 0.562038 36.6817 0.651488C37.0357 0.832104 37.3027 1.14395 37.4241 1.51859C37.5454 1.89324 37.5112 2.30009 37.3289 2.64988L34.6012 7.86257C34.4384 8.17329 34.1695 8.4172 33.8421 8.5512C33.5147 8.68521 33.1499 8.70067 32.812 8.59486L30.1652 7.76676C29.8441 7.66656 29.4982 7.6754 29.1827 7.79185L25.6621 9.1013C25.3659 9.21021 25.0424 9.22457 24.7375 9.14236L21.3925 8.22986C21.1411 8.16163 20.8759 8.15898 20.6231 8.22216C20.3703 8.28534 20.1384 8.41218 19.9501 8.5903L17.9736 10.4587C17.7757 10.6477 17.5289 10.7793 17.2602 10.8393C16.9916 10.8992 16.7114 10.8851 16.4503 10.7986L12.7031 9.55755C12.3505 9.44056 11.9664 9.45764 11.6259 9.60546L8.47514 10.9742C8.28521 11.0561 8.0802 11.0983 7.87296 11.0983C7.66571 11.0983 7.4607 11.0561 7.27077 10.9742L6.11496 10.4746C5.80323 10.3405 5.45457 10.3148 5.12612 10.4018C4.79768 10.4889 4.50894 10.6835 4.30726 10.9537L3.21386 12.4137C3.09669 12.5708 2.94923 12.7035 2.77994 12.8041C2.61065 12.9048 2.42288 12.9715 2.22741 13.0003C2.03193 13.0291 1.83261 13.0195 1.6409 12.9721C1.44919 12.9247 1.26886 12.8404 1.11027 12.724Z" fill="#1D2939"/>
<path d="M12.6037 15.5824C13.4821 15.5824 14.1941 14.8797 14.1941 14.0129C14.1941 13.1461 13.4821 12.4434 12.6037 12.4434C11.7254 12.4434 11.0133 13.1461 11.0133 14.0129C11.0133 14.8797 11.7254 15.5824 12.6037 15.5824Z" fill="#1D2939"/>
<path d="M12.6037 3.21562C13.4821 3.21562 14.1941 2.51293 14.1941 1.64611C14.1941 0.779293 13.4821 0.0765991 12.6037 0.0765991C11.7254 0.0765991 11.0133 0.779293 11.0133 1.64611C11.0133 2.51293 11.7254 3.21562 12.6037 3.21562Z" fill="#1D2939"/>
<path d="M12.6037 21.6368C13.4821 21.6368 14.1941 20.9341 14.1941 20.0673C14.1941 19.2005 13.4821 18.4978 12.6037 18.4978C11.7254 18.4978 11.0133 19.2005 11.0133 20.0673C11.0133 20.9341 11.7254 21.6368 12.6037 21.6368Z" fill="#1D2939"/>
<path d="M12.6037 27.8624C13.4821 27.8624 14.1941 27.1597 14.1941 26.2929C14.1941 25.4261 13.4821 24.7234 12.6037 24.7234C11.7254 24.7234 11.0133 25.4261 11.0133 26.2929C11.0133 27.1597 11.7254 27.8624 12.6037 27.8624Z" fill="#1D2939"/>
<path d="M25.2344 15.6257C26.1128 15.6257 26.8248 14.923 26.8248 14.0562C26.8248 13.1894 26.1128 12.4867 25.2344 12.4867C24.3561 12.4867 23.644 13.1894 23.644 14.0562C23.644 14.923 24.3561 15.6257 25.2344 15.6257Z" fill="#1D2939"/>
<path d="M25.2344 3.25896C26.1128 3.25896 26.8248 2.55626 26.8248 1.68945C26.8248 0.822628 26.1128 0.119934 25.2344 0.119934C24.3561 0.119934 23.644 0.822628 23.644 1.68945C23.644 2.55626 24.3561 3.25896 25.2344 3.25896Z" fill="#1D2939"/>
<path d="M25.2344 21.6802C26.1128 21.6802 26.8248 20.9775 26.8248 20.1107C26.8248 19.2439 26.1128 18.5412 25.2344 18.5412C24.3561 18.5412 23.644 19.2439 23.644 20.1107C23.644 20.9775 24.3561 21.6802 25.2344 21.6802Z" fill="#1D2939"/>
<path d="M25.2344 27.9057C26.1128 27.9057 26.8248 27.2031 26.8248 26.3362C26.8248 25.4694 26.1128 24.7667 25.2344 24.7667C24.3561 24.7667 23.644 25.4694 23.644 26.3362C23.644 27.2031 24.3561 27.9057 25.2344 27.9057Z" fill="#1D2939"/>
</g>
<defs>
<clipPath id="clip0_629_2">
<rect width="37" height="34" fill="white" transform="translate(0.5 0.0765991)"/>
</clipPath>
</defs>
</svg>
