<svg width="18" height="23" viewBox="0 0 18 23" fill="none" xmlns="http://www.w3.org/2000/svg">
<g clip-path="url(#clip0_628_92)">
<path d="M16.9425 0H1.0575C0.473955 0 0 0.479206 0 1.06922V21.9308C0 22.5217 0.473955 23 1.0575 23H16.9425C17.526 23 18 22.5217 18 21.9308V1.06922C18 0.479206 17.526 0 16.9425 0ZM10.5263 18.6057C10.3221 18.8112 10.0411 18.9391 9.73201 18.9391H4.29651C3.67831 18.9391 3.1725 18.4277 3.1725 17.8026C3.1725 17.4901 3.29895 17.206 3.50315 16.9995C3.70734 16.793 3.98741 16.6661 4.29651 16.6661H9.73201C10.3502 16.6661 10.856 17.1776 10.856 17.8026C10.856 18.1151 10.7296 18.3992 10.5263 18.6057ZM3.1725 14.2247C3.1725 13.9121 3.29895 13.628 3.50315 13.4216C3.70641 13.2161 3.98741 13.0882 4.29651 13.0882H7.87553C8.49373 13.0882 8.99953 13.5996 8.99953 14.2247C8.99953 14.5372 8.87308 14.8213 8.66982 15.0278C8.46563 15.2333 8.18463 15.3611 7.87553 15.3611H4.29651C3.67831 15.3611 3.1725 14.8497 3.1725 14.2247ZM10.5263 11.4479C10.3221 11.6544 10.0411 11.7822 9.73201 11.7822H4.29651C3.67831 11.7822 3.1725 11.2708 3.1725 10.6458C3.1725 10.3332 3.29895 10.0491 3.50315 9.84361C3.70641 9.63716 3.98741 9.50931 4.29651 9.50931H9.73201C10.3502 9.50931 10.856 10.0207 10.856 10.6458C10.856 10.9583 10.7296 11.2424 10.5263 11.4479ZM13.1649 18.9391C12.5448 18.9391 12.0409 18.4305 12.0409 17.8026C12.0409 17.1747 12.5448 16.6661 13.1649 16.6661C13.785 16.6661 14.2889 17.1757 14.2889 17.8026C14.2889 18.4295 13.7859 18.9391 13.1649 18.9391ZM13.1649 15.3611C12.5448 15.3611 12.0409 14.8516 12.0409 14.2247C12.0409 13.5977 12.5448 13.0882 13.1649 13.0882C13.785 13.0882 14.2889 13.5968 14.2889 14.2247C14.2889 14.8525 13.7859 15.3611 13.1649 15.3611ZM13.1649 11.7822C12.5448 11.7822 12.0409 11.2727 12.0409 10.6458C12.0409 10.0188 12.5448 9.50931 13.1649 9.50931C13.785 9.50931 14.2889 10.0179 14.2889 10.6458C14.2889 11.2737 13.7859 11.7822 13.1649 11.7822ZM13.9583 6.10278C13.755 6.30923 13.474 6.43708 13.1649 6.43708H4.29651C3.67831 6.43708 3.1725 5.92568 3.1725 5.30063C3.1725 4.9881 3.29895 4.70399 3.50315 4.49848C3.70641 4.29202 3.98741 4.16417 4.29651 4.16417H13.1649C13.7831 4.16417 14.2889 4.67557 14.2889 5.30063C14.2889 5.61315 14.1625 5.89727 13.9583 6.10278Z" fill="#8E949C"/>
</g>
<defs>
<clipPath id="clip0_628_92">
<rect width="18" height="23" fill="white"/>
</clipPath>
</defs>
</svg>
