<svg width="32" height="32" viewBox="0 0 32 32" fill="none" xmlns="http://www.w3.org/2000/svg">
<g clip-path="url(#clip0_628_98)">
<path d="M30.5649 0.0765991H24.182C23.6655 0.0765991 23.2469 0.490903 23.2469 1.00197V30.1512C23.2469 30.6623 23.6655 31.0766 24.182 31.0766H30.5649C31.0814 31.0766 31.5 30.6623 31.5 30.1512V1.00197C31.5 0.490903 31.0814 0.0765991 30.5649 0.0765991Z" fill="#1D2939"/>
<path d="M19.1457 8.82739H12.7628C12.2463 8.82739 11.8277 9.2417 11.8277 9.75277V30.1512C11.8277 30.6623 12.2463 31.0766 12.7628 31.0766H19.1457C19.6622 31.0766 20.0808 30.6623 20.0808 30.1512V9.75277C20.0808 9.2417 19.6622 8.82739 19.1457 8.82739Z" fill="#1D2939"/>
<path d="M7.81803 17.1708H1.43508C0.91865 17.1708 0.5 17.5851 0.5 18.0962V30.1512C0.5 30.6623 0.91865 31.0766 1.43508 31.0766H7.81803C8.33446 31.0766 8.75311 30.6623 8.75311 30.1512V18.0962C8.75311 17.5851 8.33446 17.1708 7.81803 17.1708Z" fill="#1D2939"/>
</g>
<defs>
<clipPath id="clip0_628_98">
<rect width="31" height="31" fill="white" transform="translate(0.5 0.0765991)"/>
</clipPath>
</defs>
</svg>
