<?xml version="1.0" encoding="UTF-8"?><svg id="Layer_2" xmlns="http://www.w3.org/2000/svg" viewBox="0 0 559.99 242.29"><g id="Layer_1-2"><rect x="358.41" y=".11" width="9.91" height="96.37" style="fill:#231f20;"/><path d="m165.77,205.59c-2.01-6.13-6.91-11.3-10.63-17.12,16.19-16.49,4.12-40.24-13.93-41.83-13.48-1.19-27.14-.24-40.93-.24v93.43c14.38,0,28.39.79,42.27-.2,17.13-1.22,28.48-17.97,23.22-34.04Zm-54.43-48.78c10.34,0,19.07.17,28.45.16,7.46-.01,11.49,7.4,11.47,14.05-.02,7.81-6.56,14.57-14.9,14.65-7.91.08-15,.08-25.02.08v-28.94Zm29.84,72.5c-9.74.27-19.55.17-29.91.17v-33.09c10.37,0,20.03-.07,30.82.23,9.19.26,13.79,8.59,13.57,17.1-.21,8.23-5.78,15.35-14.48,15.59Z" style="fill:#231f20;"/><path d="m76.71,57.31h-24.14v-9.12h35.83c0,7.5-.6,14.07-2.63,20.68-10.68,34.78-51.04,36.1-69.45,20.34-8.01-6.86-12.53-15.87-14.49-26.12C-1.12,47.6-.09,32.58,8.5,18.83,18.07,3.52,32.68-1.27,49.72.28c14.72,1.34,25.87,8.7,33.27,22.3-3.46,1.59-6.7,3.07-10.09,4.62-8.4-14.07-20.71-18.76-35.94-15.62-14.59,3.01-23.06,13.7-24.6,31.14-1.01,11.36-.41,22.71,6.48,32.58,7.63,10.92,18.67,14.16,31.15,12.36,12.18-1.75,20.48-12.08,24.32-20.76,1.19-2.7,2.2-5.08,2.4-9.58Z" style="fill:#231f20;"/><path d="m59.49,216.19v-24.89h-10.45l-.12,16.45c-.93-.73-20.8-17.27-29.86-25.12-2.06-1.79-3.72-4.32-4.87-6.83-4.3-9.38.68-18.93,10.72-21.05,8.7-1.84,16.09.17,21.55,7.76,3.01-1.41,5.76-2.71,8.5-4-6.11-13.39-25.03-18.65-39.7-11.45-5.98,2.94-10.1,7.54-12.1,13.91-3.57,11.42.7,20.71,8.52,28.72-13.32,11.54-15.53,31.65-5.19,43.09,5.59,6.18,12.7,8.8,20.84,9.26,12.52.7,22.81-3.19,29.45-14.56,3.28,2.64,6.1,4.92,9.22,7.44,2.14-2.59,4.2-5.08,6.43-7.76-4.44-3.76-8.48-7.18-12.94-10.97Zm-32.48,15.76c-8.12-.61-14.58-6.09-15.83-13.42-1.76-10.31,1.29-17.42,9.44-21.14,9.05,7.4,18.27,14.94,27.37,22.38-3.18,9.37-9.68,13.04-20.98,12.18Z" style="fill:#231f20;"/><path d="m298.79,239.71c-5.03-17.05-9.97-33.75-15.36-52.03-5.6,18.17-10.79,35-16.05,52.06h-10.56c-7-22.95-14.07-46.08-21.28-69.71h11c5.15,16.79,10.33,33.68,15.91,51.88,5.56-18.19,10.68-34.95,15.87-51.96h10.01c5.16,16.71,10.38,33.59,16.05,51.96,5.63-18.24,10.8-35.02,16.04-52h10.74c-7.11,23.35-14.14,46.41-21.26,69.81h-11.12Z" style="fill:#231f20;"/><path d="m510.69,51.87c-.32-12.19-5.76-21.78-17.72-25.66-6.13-1.99-13.12-2.57-19.57-2.02-9.79.83-17.8,5.62-22.82,14.94,3.5,1.65,6.61,3.12,9.89,4.67,6.55-9.71,15.88-11.02,26.11-8.58,6.85,1.63,11.09,6.24,12.58,13.94-1.87.27-3.17.42-4.45.66-10.92,2-22.03,3.31-32.7,6.24-9.94,2.73-15.67,12.52-14.55,21.84,1.27,10.51,8.99,18.63,19.23,20.06,13.31,1.85,24.41-2.45,34.09-13.62v12.14h9.48c.2-.87.47-1.51.47-2.14.03-14.16.33-28.32-.04-42.47Zm-40.34,36.13c-6.37-1.14-11.25-6.03-11.76-11.8-.46-5.13,2.82-9.83,9.64-11.56,10.04-2.55,20.3-4.23,30.79-6.34,2.02,18.67-12.11,32.64-28.67,29.7Z" style="fill:#231f20;"/><path d="m414.71,230.04c-8.31-3.49-11.87-13.19-12.14-22.01h54.25c0-5.37,0-8.47-.81-14.46-1.87-13.75-12.77-23.4-25.52-25.55-14.75-2.49-28.06,2.9-35.12,14.46-5.36,8.79-5.96,18.56-5.17,28.51,1.31,16.46,11.09,27.42,27.26,30.63,14.98,2.96,30.03-4.11,35.64-17.06-3.38-1.47-6.77-2.95-10.09-4.4-6.99,12.15-19.55,13.55-28.3,9.88Zm5.86-52.04c13.15-1.6,23.23,6.78,24.39,20.7h-42.12c-.15-9.13,7.13-19.4,17.73-20.7Z" style="fill:#231f20;"/><path d="m237.2,198.22c-.65-13.68-9.39-25.99-23.19-29.32-14.96-3.61-30.41.27-37.59,12.4-6.44,10.87-6.44,21.77-5.27,34.05,1.49,15.63,15.14,25.99,29.93,26.71,18.26.87,30.07-7.34,34.64-23.6,1.24-4.43,2.04-8.37,1.48-20.24Zm-12.58,17.64c-2.1,10.74-11.23,16.45-21.79,16.01-10.32-.42-18.65-7.13-20.19-17.98-.95-6.71-.61-13.91.73-20.57,1.93-9.64,9.81-15.18,19.48-15.4,10.56-.24,18.33,4.85,21.32,14.44,1.23,3.91,2.6,12.46.45,23.5Z" style="fill:#231f20;"/><path d="m377.78,169.83h12.63c-7.33,10.82-14.29,21.08-21.6,31.88,8.1,12.43,16.3,25,24.85,38.11h-12.37c-7.34-11.13-14.74-22.36-22.04-33.44h-12.76v33.3h-10.95v-93.46h10.6v50.72h13.16c5.96-8.74,12.13-17.78,18.49-27.1Z" style="fill:#231f20;"/><path d="m297.5,96.45h-10.86V26.05h9.48c.05,2.16,0,4.03.09,5.64,5.83-4.42,9.15-5.21,13.92-6.63,15.34-4.56,35.6,3.11,37.23,23.37,1.27,15.82.26,31.83.26,48.04h-10.35c0-2.82.05-5.58,0-8.34-.26-12.64.24-25.36-1.08-37.89-1.15-10.87-8.76-15.85-20.18-15.53-9.33.26-16.5,6.53-17.64,16.45-.85,7.41-.72,14.95-.84,22.43-.12,7.48-.03,14.95-.03,22.85Z" style="fill:#231f20;"/><path d="m513.66,25.71h15.29c.16-9.07,1.25-17.75,10.05-22.46,6.5-3.48,13.21-2.86,20.98-2.74v9.03c-6.71.11-13.52-1.37-17.65,5.05-1.81,2.82-2.86,6.78-2.85,10.89h20.35v9.21h-19.42v61.7h-11.13v-61.35h-15.62v-9.33Z" style="fill:#231f20;"/><path d="m107.29,96.5h-10.27V25.91c3.17,0,6.9.04,10.12.04-.01,2.54-.01,4.91-.03,8.31,8.92-9.95,19.33-12.58,31.56-9.15v9.8c-3.4-.33-6.5-.89-9.61-.9-12.19-.02-20.92,7.26-21.41,19.41-.49,12.14-.37,40.49-.37,43.09Z" style="fill:#231f20;"/><path d="m402.15,86.38c-8.31-3.49-11.87-13.19-12.14-22.01h54.25c0-5.37,0-8.47-.81-14.46-1.87-13.75-12.77-23.4-25.52-25.55-14.75-2.49-28.06,2.9-35.12,14.46-5.36,8.79-5.96,18.56-5.17,28.51,1.31,16.46,11.09,27.42,27.26,30.63,14.98,2.96,30.03-4.11,35.64-17.06-3.38-1.47-6.77-2.95-10.09-4.4-6.99,12.15-19.55,13.55-28.3,9.88Zm5.86-52.04c13.15-1.6,23.23,6.78,24.39,20.7h-42.12c-.15-9.13,7.13-19.4,17.73-20.7Z" style="fill:#231f20;"/><path d="m237.94,87.24c-9.62-2.97-14.74-10.61-14.84-22.74h56.13c-.37-4.26-.51-7.56-.96-10.81-1.67-12.11-7-21.96-18.68-26.9-12.27-5.19-24.48-4.52-35.47,3.45-9.3,6.74-12.57,16.67-13.23,27.81-1.23,20.72,7.88,38.05,31.35,40.7,13.12,1.48,27.99-6.18,32.41-17.74-3.42-1.46-6.85-2.91-10.15-4.32-7.24,10.35-16.17,13.77-26.56,10.55Zm7.28-53.19c11.93.26,21.34,9.63,20.95,20.67h-42.76c.22-11.94,9.78-20.93,21.81-20.67Z" style="fill:#231f20;"/><path d="m165.75,87.08c-9.62-2.97-14.74-10.61-14.84-22.74h56.13c-.37-4.26-.51-7.56-.96-10.81-1.67-12.11-7-21.96-18.68-26.9-12.27-5.19-24.48-4.52-35.47,3.45-9.3,6.74-12.57,16.67-13.23,27.81-1.23,20.72,7.88,38.05,31.35,40.7,13.12,1.48,27.99-6.18,32.41-17.74-3.42-1.46-6.85-2.91-10.15-4.32-7.24,10.35-16.17,13.77-26.56,10.55Zm7.28-53.19c11.93.26,21.34,9.63,20.95,20.67h-42.76c.22-11.94,9.78-20.93,21.81-20.67Z" style="fill:#231f20;"/><path d="m475.81,239.89h-10.27v-70.59c3.17,0,6.9.04,10.12.04-.01,2.54-.01,4.91-.03,8.31,8.92-9.95,19.33-12.58,31.56-9.15v9.8c-3.4-.33-6.5-.89-9.61-.9-12.19-.02-20.92,7.26-21.41,19.41-.49,12.14-.37,40.49-.37,43.09Z" style="fill:#231f20;"/></g></svg>