<svg width="24" height="25" viewBox="0 0 24 25" fill="none" xmlns="http://www.w3.org/2000/svg">
<g clip-path="url(#clip0_635_175)">
<path d="M16.2698 6.61369C16.2698 6.61369 13.6973 8.32787 11.354 6.61369L11.1248 6.61652V11.1731C11.1248 11.6996 10.6947 12.1314 10.1669 12.1314C9.63905 12.1314 9.2103 11.6996 9.2103 11.1731V6.63775L8.78156 6.642C8.78156 6.642 6.62508 8.15801 4.58039 6.67031C4.54926 6.64766 4.51813 6.62501 4.48983 6.60519C3.94929 6.90387 1.13342 8.38732 0.979187 6.78496C0.979187 6.78496 4.21107 2.55966 9.2103 2.12368V1.1668C9.2103 0.640227 9.64047 0.208496 10.1669 0.208496C10.4315 0.208496 10.6706 0.316075 10.8432 0.490183C11.0173 0.664291 11.1248 0.903512 11.1248 1.1668V2.14916C13.5558 2.42236 16.3066 3.65951 19.2456 6.58396C19.2456 6.58396 19.6998 8.75677 16.2698 6.61369Z" fill="#1D2939"/>
<path d="M20.2162 14.1272C21.3181 14.1272 22.2114 13.2337 22.2114 12.1314C22.2114 11.0291 21.3181 10.1355 20.2162 10.1355C19.1143 10.1355 18.2211 11.0291 18.2211 12.1314C18.2211 13.2337 19.1143 14.1272 20.2162 14.1272Z" fill="#1D2939"/>
<path d="M23.8698 20.3766C23.8698 20.6272 23.7665 20.8565 23.601 21.0221C23.4354 21.1877 23.2062 21.2911 22.9557 21.2911H21.2903V23.1326C21.2903 23.7243 20.8063 24.2084 20.2163 24.2084C19.6262 24.2084 19.1409 23.7243 19.1409 23.1326V21.2911H4.74453V23.1326C4.74453 23.7243 4.2606 24.2084 3.66912 24.2084C3.07765 24.2084 2.59513 23.7243 2.59513 23.1326V21.2911H0.914097C0.411768 21.2911 0 20.8792 0 20.3766C0 20.1261 0.103296 19.8968 0.268852 19.7312C0.434408 19.5656 0.662225 19.4622 0.914097 19.4622H11.6229C11.6809 19.4212 11.7446 19.3872 11.8139 19.3589L22.677 14.9736C23.168 14.7755 23.7326 15.0161 23.9307 15.5073C23.9774 15.6248 24 15.7451 24 15.8654C24 16.2476 23.7722 16.61 23.3972 16.7614L16.707 19.4622H22.9557C23.458 19.4622 23.8698 19.8741 23.8698 20.3766Z" fill="#1D2939"/>
<path d="M17.3891 13.2722L17.3282 13.1109C16.9844 12.1837 15.9443 11.7053 15.0175 12.0506L9.83999 13.9715C9.79187 13.9899 9.74518 14.0097 9.69848 14.0309L7.03826 11.558C6.79488 11.3316 6.48924 11.2112 6.18077 11.1928C6.17511 11.1928 6.16803 11.1928 6.16237 11.1928C5.81145 11.1617 5.4959 11.2452 5.36714 11.2863C5.36572 11.2877 5.36289 11.2877 5.36148 11.2891C5.35157 11.2919 5.3445 11.2933 5.33742 11.2962C5.31761 11.3033 5.30629 11.3075 5.30629 11.3075C5.1563 11.3641 5.01904 11.459 4.9115 11.592L1.6499 15.5979C1.61594 15.6404 1.58481 15.6843 1.56076 15.731H0.952302C0.690525 15.731 0.452803 15.8386 0.280172 16.0112C0.107541 16.1839 0 16.4217 0 16.6822C0 17.2059 0.428748 17.6348 0.952302 17.6348H10.1739C10.2447 17.6348 10.3126 17.6278 10.3777 17.6122C10.6338 17.6348 10.897 17.6023 11.1517 17.5074L16.3278 15.5852C17.2546 15.2412 17.7329 14.2008 17.3891 13.2736V13.2722ZM3.9776 15.7296L5.47751 13.888L7.45852 15.7296H3.9776Z" fill="#1D2939"/>
</g>
<defs>
<clipPath id="clip0_635_175">
<rect width="24" height="24" fill="white" transform="translate(0 0.208496)"/>
</clipPath>
</defs>
</svg>
