<svg width="19" height="22" viewBox="0 0 19 22" fill="none" xmlns="http://www.w3.org/2000/svg">
<g clip-path="url(#clip0_859_240)">
<path d="M17.6276 7.88645H15.6081V6.23188C15.6081 2.79471 12.8796 0 9.52511 0C6.17059 0 3.44095 2.79471 3.44095 6.23188V7.88645H1.37241C0.614373 7.88645 0 8.51574 0 9.29218V20.5943C0 21.3707 0.614373 22 1.37241 22H17.6276C18.3856 22 19 21.3707 19 20.5943V9.29218C19 8.51574 18.3856 7.88645 17.6276 7.88645ZM13.5057 7.88645H5.54337V6.23188C5.54337 3.98271 7.32926 2.15346 9.52511 2.15346C11.721 2.15346 13.5057 3.98271 13.5057 6.23188V7.88645Z" fill="#1D2939"/>
</g>
<defs>
<clipPath id="clip0_859_240">
<rect width="19" height="22" fill="white"/>
</clipPath>
</defs>
</svg>
