<svg width="21" height="24" viewBox="0 0 21 24" fill="none" xmlns="http://www.w3.org/2000/svg">
<path d="M18.9427 8.74082H17.5361V6.84881C17.5361 3.07127 14.4207 0 10.5887 0C6.75681 0 3.64131 3.07127 3.64131 6.84881V8.74082H2.05728C0.920188 8.74082 0 9.64795 0 10.7689V21.9719C0 23.0929 0.920188 24 2.05728 24H18.9427C20.0798 24 21 23.0929 21 21.9719V10.7689C21 9.64795 20.0798 8.74082 18.9427 8.74082ZM10.2601 22.1922C9.57653 22.1922 9.02441 21.6479 9.02441 20.9741C9.02441 20.3002 9.57653 19.7495 10.2601 19.7495C10.9437 19.7495 11.5023 20.3002 11.5023 20.9741C11.5023 21.6479 10.9437 22.1922 10.2601 22.1922ZM14.1906 13.581C14.1906 16.0886 11.3446 17.1382 11.3446 17.1382V18.2981L9.33333 18.2851V16.5551C12.2648 14.689 12.1202 12.4276 10.5362 12.4147C8.95211 12.4017 9.06385 14.0929 9.06385 14.0929H6.93427C6.93427 14.0929 6.78967 10.5551 10.5822 10.5162C14.3746 10.4838 14.1906 13.581 14.1906 13.581ZM14.907 8.74082H6.27042V6.84881C6.27042 4.49676 8.20939 2.59179 10.5887 2.59179C12.9681 2.59179 14.907 4.49676 14.907 6.84881V8.74082Z" fill="#8E949C"/>
</svg>
