<svg width="276" height="275" viewBox="0 0 276 275" fill="none" xmlns="http://www.w3.org/2000/svg">
<defs>
<linearGradient id="paint0_linear_709_181" x1="179.799" y1="241.586" x2="217.116" y2="278.948" gradientUnits="userSpaceOnUse">
<stop stop-color="#4F7FC0"/>
<stop offset="1" stop-color="#6699CC"/>
</linearGradient>
<linearGradient id="paint1_linear_709_181" x1="48.2317" y1="261.27" x2="100.99" y2="261.27" gradientUnits="userSpaceOnUse">
<stop stop-color="#DBA027"/>
<stop offset="1" stop-color="#EFB41E"/>
</linearGradient>
<linearGradient id="paint2_linear_709_181" x1="58.1114" y1="131.855" x2="58.1114" y2="39.8911" gradientUnits="userSpaceOnUse">
<stop stop-color="#7DA6D8"/>
<stop offset="1" stop-color="#A6C1E5"/>
</linearGradient>
<linearGradient id="paint3_linear_709_181" x1="9.09763" y1="261.058" x2="61.85" y2="261.058" gradientUnits="userSpaceOnUse">
<stop stop-color="#DBA027"/>
<stop offset="1" stop-color="#EFB41E"/>
</linearGradient>
<linearGradient id="paint4_linear_709_181" x1="186.969" y1="13.1402" x2="250.733" y2="76.9738" gradientUnits="userSpaceOnUse">
<stop stop-color="#6699CC"/>
<stop offset="0.11" stop-color="#5C90C7"/>
<stop offset="0.39" stop-color="#4A7FBF"/>
<stop offset="0.69" stop-color="#3E74B9"/>
<stop offset="1" stop-color="#3B71B8"/>
</linearGradient>
<linearGradient id="paint5_linear_709_181" x1="160.403" y1="110.29" x2="236.643" y2="110.29" gradientUnits="userSpaceOnUse">
<stop stop-color="#5480C1"/>
<stop offset="1" stop-color="#3C72B8"/>
</linearGradient>
<linearGradient id="paint6_linear_709_181" x1="160.867" y1="230.801" x2="237.101" y2="230.801" gradientUnits="userSpaceOnUse">
<stop stop-color="#5480C1"/>
<stop offset="1" stop-color="#3C72B8"/>
</linearGradient>
</defs>
<path d="M224.835 249.256H172.121V271.238H224.835V249.256Z" fill="url(#paint0_linear_709_181)"/>
<path d="M221.135 222.741C226.762 222.741 231.322 218.185 231.322 212.565C231.322 206.945 226.762 202.389 221.135 202.389C215.509 202.389 210.948 206.945 210.948 212.565C210.948 218.185 215.509 222.741 221.135 222.741Z" fill="#FCC817"/>
<path d="M218.324 218.521L218.76 217.114C217.788 216.774 216.899 216.193 216.441 215.708L217.413 214.117C217.939 214.641 218.716 215.227 219.677 215.523C220.521 215.78 221.202 215.629 221.381 215.043C221.56 214.457 221.186 213.983 220.196 213.274C218.777 212.252 217.922 211.175 218.363 209.746C218.766 208.434 219.995 207.692 221.683 207.876L222.119 206.469L223.577 206.916L223.175 208.222C224.147 208.557 224.745 208.981 225.175 209.366L224.22 210.901C223.896 210.617 223.315 210.064 222.247 209.735C221.292 209.439 220.85 209.768 220.722 210.181C220.571 210.661 220.99 211.141 222.108 211.99C223.683 213.151 224.136 214.184 223.723 215.529C223.309 216.874 222.052 217.672 220.258 217.449L219.788 218.967L218.33 218.521H218.324Z" fill="#DEB425"/>
<path d="M214.256 106.573C214.256 106.573 212.043 116.241 221.063 127.226C230.087 138.206 219.096 151.235 219.096 151.235L201.783 149.839C201.783 149.839 212.038 137.877 202.683 131.156C193.328 124.435 197.184 110.832 197.184 110.832L214.251 106.573H214.256Z" fill="#7DA6D8"/>
<path d="M203.767 120.623C205.226 120.344 206.779 121.041 207.489 122.359C207.679 122.71 207.578 123.168 207.221 123.375C206.885 123.57 206.394 123.464 206.204 123.107C206.17 123.045 206.136 122.984 206.097 122.922C206.086 122.911 205.986 122.761 206.03 122.822C206.075 122.883 205.963 122.744 205.952 122.733C205.902 122.682 205.857 122.627 205.801 122.582C205.756 122.543 205.712 122.504 205.667 122.465C205.611 122.415 205.729 122.498 205.617 122.431C205.505 122.359 205.399 122.292 205.281 122.23C205.242 122.208 205.136 122.163 205.231 122.202C205.164 122.174 205.097 122.152 205.03 122.13C204.929 122.096 204.829 122.074 204.723 122.057C204.7 122.057 204.611 122.041 204.6 122.041C204.538 122.041 204.482 122.041 204.421 122.041C204.359 122.041 204.304 122.041 204.242 122.046C204.209 122.046 204.209 122.046 204.197 122.046C204.186 122.046 204.186 122.046 204.158 122.057C204.041 122.085 203.929 122.119 203.812 122.152C203.778 122.163 203.778 122.163 203.767 122.163C203.756 122.169 203.756 122.169 203.728 122.186C203.678 122.214 203.622 122.241 203.572 122.269C203.521 122.297 203.471 122.331 203.421 122.364C203.421 122.364 203.337 122.426 203.32 122.437C203.236 122.504 203.158 122.576 203.08 122.655C203.029 122.705 202.985 122.761 202.94 122.816C203.007 122.738 202.929 122.833 202.907 122.867C202.834 122.973 202.772 123.09 202.711 123.202C202.7 123.224 202.694 123.229 202.689 123.235C202.689 123.235 202.689 123.235 202.689 123.252C202.666 123.308 202.649 123.363 202.633 123.419C202.61 123.486 202.594 123.553 202.577 123.626C202.571 123.659 202.543 123.86 202.56 123.71C202.515 124.106 202.253 124.452 201.817 124.452C201.448 124.452 201.029 124.111 201.074 123.71C201.236 122.258 202.292 120.913 203.773 120.628L203.767 120.623Z" fill="#A6C1E5"/>
<path d="M200.464 118.925C200.699 118.423 200.962 117.921 201.364 117.53C201.834 117.072 202.432 116.843 203.08 116.788C204.32 116.676 205.421 117.351 206.405 118.016C206.734 118.239 206.885 118.669 206.673 119.032C206.483 119.361 205.991 119.523 205.656 119.299C205.242 119.02 204.823 118.736 204.371 118.518C204.002 118.345 203.633 118.25 203.236 118.261C203.192 118.261 203.147 118.261 203.102 118.272C203.085 118.272 203.069 118.272 203.052 118.278C202.94 118.3 202.828 118.328 202.722 118.373C202.722 118.373 202.722 118.373 202.717 118.373C202.717 118.373 202.717 118.373 202.694 118.39C202.638 118.423 202.582 118.451 202.532 118.485C202.521 118.49 202.504 118.507 202.493 118.518C202.459 118.546 202.426 118.579 202.392 118.613C202.348 118.658 202.309 118.702 202.264 118.752C202.258 118.758 202.264 118.752 202.253 118.764C202.253 118.764 202.253 118.764 202.242 118.78C202.174 118.875 202.113 118.97 202.057 119.071C201.945 119.272 201.845 119.478 201.744 119.685C201.571 120.047 201.051 120.142 200.727 119.953C200.353 119.735 200.286 119.299 200.459 118.937L200.464 118.925Z" fill="#A6C1E5"/>
<path d="M212.826 139.077C213.233 138.29 214.033 137.676 214.904 137.503C215.977 137.291 216.955 137.687 217.916 138.128C218.268 138.29 218.386 138.831 218.185 139.144C217.95 139.507 217.548 139.585 217.168 139.412C216.793 139.239 216.598 139.138 216.162 139.015C216.067 138.988 215.972 138.971 215.871 138.948C215.782 138.932 215.776 138.932 215.849 138.943C215.798 138.937 215.748 138.932 215.703 138.932C215.603 138.926 215.508 138.926 215.407 138.932C215.379 138.932 215.357 138.932 215.329 138.937C215.318 138.937 215.323 138.937 215.301 138.937C215.223 138.96 215.145 138.971 215.066 138.999C215.044 139.004 214.955 139.043 214.921 139.055C214.804 139.116 214.692 139.177 214.58 139.255C214.552 139.278 214.474 139.339 214.463 139.356C214.401 139.412 214.351 139.473 214.295 139.529C214.29 139.54 214.29 139.535 214.284 139.54C214.267 139.568 214.245 139.59 214.228 139.618C214.183 139.685 214.144 139.758 214.105 139.83C213.926 140.177 213.412 140.305 213.088 140.098C212.736 139.87 212.63 139.451 212.82 139.082L212.826 139.077Z" fill="#A6C1E5"/>
<path d="M214.033 140.975C214.374 140.601 214.865 140.299 215.363 140.21C216.464 140.003 217.648 140.511 218.174 141.522C218.352 141.868 218.274 142.342 217.905 142.538C217.564 142.716 217.078 142.638 216.888 142.27C216.849 142.197 216.804 142.13 216.76 142.058C216.726 142.024 216.693 141.985 216.659 141.952C216.631 141.929 216.603 141.901 216.581 141.879C216.508 141.829 216.43 141.784 216.352 141.745C216.251 141.695 216.302 141.734 216.374 141.745C216.329 141.739 216.279 141.712 216.234 141.695C216.162 141.672 216.084 141.656 216.005 141.639C215.966 141.639 215.922 141.639 215.882 141.639C215.843 141.639 215.799 141.639 215.759 141.639C215.681 141.656 215.603 141.678 215.525 141.7C215.491 141.717 215.452 141.734 215.419 141.756C215.385 141.779 215.346 141.795 215.312 141.818C215.29 141.829 215.273 141.846 215.251 141.857C215.24 141.868 215.24 141.862 215.24 141.862C215.189 141.907 215.139 141.963 215.122 141.98C215.1 142.007 215.055 142.069 215.027 142.091C215.078 142.058 215.106 141.98 215.039 142.08C214.988 142.153 214.944 142.231 214.904 142.309C214.893 142.342 214.882 142.37 214.871 142.404C214.854 142.448 214.849 142.499 214.837 142.543C214.832 142.577 214.826 142.582 214.826 142.577C214.77 142.945 214.508 143.297 214.094 143.28C213.725 143.263 213.306 142.951 213.351 142.538C213.412 141.935 213.636 141.41 214.044 140.958L214.033 140.975Z" fill="#A6C1E5"/>
<path d="M208.243 112.462C208.344 112.925 208.707 113.293 209.16 113.427C209.534 113.539 209.959 113.483 210.339 113.416C211.048 113.293 211.725 112.931 212.25 112.445C212.608 112.121 212.831 111.736 212.781 111.239C212.747 110.915 212.686 110.603 212.58 110.301C212.647 110.184 212.691 110.056 212.691 109.933C212.691 109.721 212.602 109.565 212.473 109.408C211.965 108.778 211.054 108.66 210.3 108.677C209.813 108.688 209.338 108.805 208.975 109.146C208.679 109.425 208.523 109.833 208.444 110.223C208.372 110.581 208.321 110.943 208.271 111.306C208.215 111.697 208.159 112.065 208.243 112.456V112.462Z" fill="#A6C1E5"/>
<path d="M197.156 114.627C197.24 114.772 197.363 114.873 197.492 114.968C197.318 115.197 197.296 115.515 197.441 115.788C197.626 116.134 198.129 116.263 198.458 116.056C198.47 116.051 198.57 115.995 198.604 115.978C198.609 115.978 198.621 115.978 198.626 115.973C198.732 115.934 198.844 115.906 198.95 115.878C199.196 115.811 199.436 115.738 199.671 115.627C200.286 115.325 200.543 114.733 200.604 114.086C200.616 113.963 200.621 113.835 200.627 113.712C200.627 113.678 200.627 113.639 200.632 113.606C200.632 113.589 200.632 113.567 200.632 113.55C200.638 113.511 200.649 113.461 200.655 113.438C200.655 113.427 200.66 113.41 200.666 113.388C200.694 113.293 200.778 113.187 200.817 113.098C200.968 112.78 201.035 112.456 200.945 112.104C200.85 111.73 200.521 111.429 200.146 111.356C199.85 111.3 199.537 111.328 199.241 111.334H199.23C199.04 111.211 198.794 111.161 198.593 111.206C198.414 111.245 198.241 111.395 198.146 111.546C198.123 111.585 198.123 111.619 198.112 111.658C197.771 111.954 197.564 112.422 197.369 112.813C197.073 113.394 196.799 114.019 197.162 114.644L197.156 114.627Z" fill="#A6C1E5"/>
<path d="M214.826 147.79C214.966 147.913 215.1 148.042 215.223 148.176C215.279 148.231 215.329 148.293 215.379 148.354C215.391 148.365 215.396 148.377 215.407 148.388C215.424 148.41 215.446 148.444 215.458 148.455C215.625 148.689 215.782 148.935 215.955 149.164C216.374 149.711 216.894 150.163 217.62 150.196C218.067 150.219 218.526 150.001 218.771 149.627C218.883 149.46 218.928 149.27 218.933 149.086C219.068 148.946 219.163 148.779 219.163 148.589C219.151 147.428 218.213 146.518 217.128 146.25C216.648 146.133 216.145 146.11 215.653 146.155C215.458 146.172 215.262 146.188 215.094 146.294C214.871 146.434 214.742 146.668 214.709 146.925C214.564 147.204 214.591 147.59 214.832 147.79H214.826Z" fill="#A6C1E5"/>
<path d="M204.812 148.762C204.918 148.946 205.069 149.024 205.259 149.102C205.706 149.286 206.271 149.275 206.718 149.113C206.925 149.035 207.103 148.923 207.282 148.801C207.305 148.801 207.327 148.801 207.344 148.801C207.74 148.711 208.087 148.415 208.282 148.069C208.69 147.338 208.573 146.406 208.065 145.764C207.802 145.435 207.366 145.211 206.941 145.234C206.388 145.262 205.952 145.563 205.634 145.993C205.405 146.294 205.265 146.674 205.131 147.02C205.041 147.243 204.991 147.467 204.969 147.707C204.969 147.757 204.969 147.813 204.969 147.863C204.874 147.952 204.79 148.064 204.745 148.192C204.689 148.371 204.728 148.605 204.818 148.767L204.812 148.762Z" fill="#A6C1E5"/>
<path d="M210.032 128.343C210.445 127.701 211.082 127.31 211.775 127.025C212.479 126.741 213.2 126.573 213.904 126.942C214.374 127.187 214.715 127.617 215.022 128.052C215.212 128.225 215.402 128.398 215.547 128.605C215.899 129.107 215.977 129.738 215.815 130.319C215.832 130.536 215.827 130.754 215.776 130.983C215.625 131.647 215.15 132.194 214.547 132.49C213.91 132.808 213.144 133.093 212.423 133.087C210.954 133.087 210.188 131.809 209.825 130.553C209.607 129.805 209.59 129.012 210.026 128.337L210.032 128.343Z" fill="#A6C1E5"/>
<path d="M206.533 131.781C206.656 133.383 207.26 134.695 208.769 135.409C210.261 136.113 211.92 136.676 213.586 136.369C215.134 136.085 216.659 135.158 217.805 134.092C218.391 133.55 218.861 132.869 219.023 132.082C219.196 131.267 219.062 130.436 218.933 129.626C218.682 128.047 218.347 126.433 217.251 125.2C216.86 124.753 216.38 124.418 215.854 124.195C215.838 124.15 215.826 124.106 215.799 124.061C215.368 123.319 214.116 123.346 213.379 123.402C212.423 123.48 211.518 123.765 210.646 124.161C209.277 124.781 207.897 125.691 207.148 127.031C206.354 128.448 206.405 130.212 206.528 131.781H206.533ZM217.045 129.28C217.425 131.206 215.927 133.193 214.312 134.064C212.602 134.979 210.507 134.594 209.445 132.925C208.942 132.138 208.444 131.161 208.238 130.246C208.009 129.236 208.668 128.387 209.322 127.7C210.065 126.919 210.859 126.188 211.915 125.864C211.926 125.864 211.943 125.864 211.954 125.853C212.239 125.864 212.535 125.875 212.837 125.881C214.675 126.143 216.698 127.505 217.05 129.275L217.045 129.28Z" fill="#A6C1E5"/>
<path d="M186.444 181.545C186.444 181.545 188.657 191.213 179.638 202.199C170.613 213.179 181.605 226.207 181.605 226.207L198.917 224.812C198.917 224.812 188.662 212.849 198.017 206.129C207.372 199.408 203.516 185.804 203.516 185.804L186.45 181.545H186.444Z" fill="#7DA6D8"/>
<path d="M196.933 195.595C195.475 195.316 193.921 196.014 193.211 197.331C193.021 197.683 193.122 198.141 193.48 198.347C193.815 198.543 194.307 198.437 194.497 198.079C194.53 198.018 194.564 197.957 194.603 197.895C194.614 197.884 194.715 197.733 194.67 197.795C194.625 197.856 194.737 197.716 194.748 197.705C194.798 197.655 194.843 197.599 194.899 197.555C194.944 197.516 194.988 197.476 195.033 197.437C195.089 197.387 194.972 197.471 195.083 197.404C195.195 197.331 195.301 197.264 195.419 197.203C195.458 197.181 195.564 197.136 195.469 197.175C195.536 197.147 195.603 197.125 195.67 197.102C195.771 197.069 195.871 197.047 195.977 197.03C196 197.03 196.089 197.013 196.1 197.013C196.162 197.013 196.218 197.013 196.279 197.013C196.341 197.013 196.397 197.013 196.458 197.019C196.492 197.019 196.492 197.019 196.503 197.019C196.514 197.019 196.514 197.019 196.542 197.03C196.659 197.058 196.771 197.091 196.888 197.125C196.922 197.136 196.922 197.136 196.933 197.136C196.944 197.142 196.944 197.142 196.972 197.158C197.022 197.186 197.078 197.214 197.129 197.242C197.179 197.27 197.229 197.303 197.28 197.337C197.28 197.337 197.363 197.398 197.38 197.409C197.464 197.476 197.542 197.549 197.62 197.627C197.671 197.677 197.715 197.733 197.76 197.789C197.693 197.711 197.771 197.806 197.794 197.839C197.866 197.945 197.928 198.063 197.989 198.174C198 198.197 198.006 198.202 198.012 198.208C198.012 198.208 198.012 198.208 198.012 198.224C198.034 198.28 198.051 198.336 198.067 198.392C198.09 198.459 198.107 198.526 198.123 198.598C198.129 198.632 198.157 198.833 198.14 198.682C198.185 199.079 198.447 199.425 198.883 199.425C199.252 199.425 199.671 199.084 199.627 198.682C199.464 197.231 198.408 195.886 196.927 195.601L196.933 195.595Z" fill="#A6C1E5"/>
<path d="M200.23 193.898C199.995 193.396 199.733 192.893 199.33 192.503C198.861 192.045 198.263 191.816 197.615 191.76C196.374 191.649 195.273 192.324 194.29 192.988C193.96 193.212 193.809 193.641 194.022 194.004C194.212 194.334 194.703 194.495 195.039 194.272C195.452 193.993 195.871 193.708 196.324 193.491C196.693 193.318 197.062 193.223 197.458 193.234C197.503 193.234 197.548 193.234 197.592 193.245C197.609 193.245 197.626 193.245 197.643 193.251C197.755 193.273 197.866 193.301 197.972 193.346C197.972 193.346 197.972 193.346 197.978 193.346C197.978 193.346 197.978 193.346 198 193.362C198.056 193.396 198.112 193.424 198.162 193.457C198.174 193.463 198.19 193.48 198.202 193.491C198.235 193.519 198.269 193.552 198.302 193.586C198.347 193.63 198.386 193.675 198.431 193.725C198.436 193.731 198.431 193.725 198.442 193.736C198.442 193.736 198.442 193.736 198.453 193.753C198.52 193.848 198.582 193.943 198.637 194.043C198.749 194.244 198.85 194.451 198.95 194.657C199.124 195.02 199.643 195.115 199.967 194.925C200.342 194.708 200.409 194.272 200.236 193.909L200.23 193.898Z" fill="#A6C1E5"/>
<path d="M187.875 214.05C187.467 213.262 186.668 212.648 185.796 212.475C184.723 212.263 183.745 212.66 182.784 213.101C182.432 213.262 182.314 213.804 182.516 214.116C182.75 214.479 183.153 214.557 183.533 214.384C183.907 214.211 184.103 214.111 184.539 213.988C184.634 213.96 184.729 213.943 184.829 213.921C184.919 213.904 184.924 213.904 184.851 213.916C184.902 213.91 184.952 213.904 184.997 213.904C185.097 213.899 185.192 213.899 185.293 213.904C185.321 213.904 185.343 213.904 185.371 213.91C185.382 213.91 185.377 213.91 185.399 213.91C185.477 213.932 185.556 213.943 185.634 213.971C185.656 213.977 185.746 214.016 185.779 214.027C185.896 214.089 186.008 214.15 186.12 214.228C186.148 214.25 186.226 214.312 186.237 214.329C186.299 214.384 186.349 214.446 186.405 214.502C186.411 214.513 186.411 214.507 186.416 214.513C186.433 214.541 186.455 214.563 186.472 214.591C186.517 214.658 186.556 214.731 186.595 214.803C186.774 215.149 187.288 215.278 187.612 215.071C187.964 214.842 188.07 214.424 187.88 214.055L187.875 214.05Z" fill="#A6C1E5"/>
<path d="M186.662 215.953C186.321 215.579 185.829 215.278 185.332 215.188C184.231 214.982 183.046 215.49 182.521 216.5C182.342 216.846 182.421 217.321 182.789 217.516C183.13 217.695 183.616 217.616 183.806 217.248C183.846 217.175 183.89 217.108 183.935 217.036C183.968 217.002 184.002 216.963 184.036 216.93C184.063 216.908 184.091 216.88 184.114 216.857C184.186 216.807 184.265 216.762 184.343 216.723C184.443 216.673 184.393 216.712 184.321 216.723C184.365 216.718 184.416 216.69 184.46 216.673C184.533 216.651 184.611 216.634 184.689 216.617C184.728 216.617 184.773 216.617 184.812 216.617C184.851 216.617 184.896 216.617 184.935 216.617C185.013 216.634 185.092 216.656 185.17 216.679C185.203 216.695 185.243 216.712 185.276 216.734C185.31 216.757 185.349 216.774 185.382 216.796C185.405 216.807 185.421 216.824 185.444 216.835C185.455 216.846 185.455 216.841 185.455 216.841C185.505 216.885 185.556 216.941 185.572 216.958C185.595 216.986 185.639 217.047 185.667 217.069C185.617 217.036 185.589 216.958 185.656 217.058C185.706 217.131 185.751 217.209 185.79 217.287C185.801 217.321 185.813 217.349 185.824 217.382C185.841 217.427 185.846 217.477 185.857 217.522C185.863 217.555 185.868 217.561 185.868 217.555C185.924 217.923 186.187 218.275 186.601 218.258C186.969 218.242 187.388 217.929 187.344 217.516C187.282 216.913 187.059 216.388 186.651 215.936L186.662 215.953Z" fill="#A6C1E5"/>
<path d="M192.429 186.29C192.379 185.927 192.323 185.564 192.256 185.207C192.177 184.816 192.021 184.409 191.725 184.13C191.362 183.789 190.887 183.672 190.4 183.661C189.646 183.644 188.735 183.761 188.227 184.392C188.098 184.548 188.009 184.705 188.009 184.917C188.009 185.039 188.053 185.168 188.12 185.285C188.014 185.586 187.953 185.899 187.919 186.223C187.869 186.72 188.098 187.099 188.45 187.429C188.981 187.914 189.652 188.277 190.361 188.4C190.741 188.467 191.16 188.523 191.54 188.411C191.993 188.277 192.356 187.909 192.457 187.445C192.541 187.055 192.485 186.686 192.429 186.295V186.29Z" fill="#A6C1E5"/>
<path d="M203.331 187.775C203.136 187.39 202.929 186.921 202.588 186.619C202.577 186.58 202.577 186.547 202.555 186.508C202.465 186.351 202.286 186.206 202.108 186.167C201.906 186.123 201.661 186.173 201.471 186.296H201.459C201.158 186.296 200.85 186.262 200.554 186.318C200.18 186.39 199.85 186.692 199.755 187.066C199.666 187.418 199.727 187.741 199.883 188.059C199.928 188.149 200.006 188.255 200.034 188.35C200.034 188.372 200.04 188.389 200.046 188.4C200.051 188.422 200.062 188.473 200.068 188.512C200.068 188.528 200.068 188.551 200.068 188.567C200.068 188.601 200.068 188.64 200.073 188.674C200.079 188.796 200.085 188.925 200.096 189.048C200.157 189.695 200.409 190.287 201.029 190.588C201.258 190.7 201.498 190.772 201.75 190.839C201.862 190.867 201.968 190.895 202.074 190.934C202.08 190.934 202.091 190.934 202.096 190.94C202.13 190.957 202.225 191.012 202.242 191.018C202.571 191.225 203.074 191.102 203.259 190.75C203.404 190.477 203.376 190.164 203.208 189.929C203.337 189.84 203.46 189.734 203.544 189.589C203.907 188.969 203.633 188.339 203.337 187.758L203.331 187.775Z" fill="#A6C1E5"/>
<path d="M185.997 221.898C185.963 221.641 185.835 221.407 185.611 221.267C185.444 221.161 185.248 221.144 185.053 221.128C184.561 221.083 184.058 221.105 183.577 221.222C182.493 221.49 181.554 222.4 181.543 223.561C181.543 223.757 181.638 223.924 181.772 224.058C181.778 224.248 181.823 224.432 181.934 224.6C182.18 224.974 182.639 225.186 183.086 225.169C183.812 225.136 184.326 224.683 184.751 224.136C184.924 223.907 185.081 223.662 185.248 223.427C185.259 223.416 185.282 223.383 185.298 223.36C185.31 223.349 185.315 223.338 185.326 223.327C185.377 223.266 185.427 223.204 185.483 223.148C185.606 223.014 185.74 222.886 185.88 222.763C186.12 222.557 186.148 222.171 186.003 221.898H185.997Z" fill="#A6C1E5"/>
<path d="M195.961 223.165C195.916 223.031 195.832 222.925 195.737 222.836C195.737 222.785 195.743 222.729 195.737 222.679C195.715 222.439 195.659 222.216 195.575 221.993C195.435 221.647 195.296 221.267 195.072 220.966C194.748 220.536 194.318 220.229 193.764 220.206C193.34 220.184 192.904 220.407 192.641 220.737C192.127 221.379 192.015 222.311 192.423 223.042C192.619 223.388 192.965 223.684 193.362 223.773C193.384 223.773 193.407 223.773 193.424 223.773C193.602 223.896 193.787 224.013 193.988 224.086C194.435 224.253 195.005 224.259 195.447 224.075C195.631 223.997 195.782 223.913 195.894 223.734C195.989 223.572 196.028 223.338 195.966 223.159L195.961 223.165Z" fill="#A6C1E5"/>
<path d="M190.669 203.321C190.255 202.679 189.618 202.288 188.925 202.003C188.221 201.719 187.5 201.551 186.796 201.92C186.327 202.165 185.986 202.595 185.678 203.031C185.488 203.204 185.298 203.377 185.153 203.583C184.801 204.086 184.723 204.716 184.885 205.297C184.868 205.515 184.874 205.732 184.924 205.961C185.075 206.625 185.55 207.172 186.153 207.468C186.79 207.787 187.556 208.071 188.277 208.066C189.747 208.066 190.512 206.787 190.875 205.531C191.093 204.783 191.11 203.991 190.674 203.315L190.669 203.321Z" fill="#A6C1E5"/>
<path d="M193.547 202.003C192.798 200.664 191.418 199.754 190.048 199.134C189.177 198.743 188.271 198.453 187.316 198.375C186.578 198.314 185.326 198.291 184.896 199.034C184.868 199.078 184.863 199.123 184.84 199.168C184.315 199.391 183.84 199.732 183.443 200.173C182.354 201.406 182.018 203.019 181.761 204.599C181.633 205.408 181.499 206.24 181.672 207.055C181.839 207.848 182.309 208.523 182.89 209.065C184.036 210.125 185.556 211.058 187.109 211.342C188.769 211.649 190.428 211.085 191.926 210.382C193.44 209.668 194.038 208.361 194.161 206.754C194.284 205.18 194.335 203.421 193.541 202.003H193.547ZM187.869 200.859C188.171 200.854 188.467 200.842 188.752 200.831C188.763 200.831 188.78 200.831 188.791 200.842C189.847 201.166 190.635 201.892 191.384 202.679C192.038 203.371 192.697 204.219 192.468 205.224C192.261 206.14 191.758 207.117 191.261 207.904C190.199 209.573 188.104 209.963 186.394 209.042C184.779 208.177 183.276 206.184 183.661 204.259C184.013 202.483 186.042 201.121 187.875 200.865L187.869 200.859Z" fill="#A6C1E5"/>
<path d="M224.835 261.43H172.121V263.272H224.835V261.43Z" fill="#2A2B69"/>
<path d="M176.614 254.665C177.42 254.665 178.073 254.012 178.073 253.208C178.073 252.403 177.42 251.751 176.614 251.751C175.809 251.751 175.156 252.403 175.156 253.208C175.156 254.012 175.809 254.665 176.614 254.665Z" fill="#2A2B69"/>
<path d="M219.677 254.665C220.482 254.665 221.135 254.012 221.135 253.208C221.135 252.403 220.482 251.751 219.677 251.751C218.871 251.751 218.218 252.403 218.218 253.208C218.218 254.012 218.871 254.665 219.677 254.665Z" fill="#2A2B69"/>
<path d="M167.885 171.587C173.512 171.587 178.073 167.031 178.073 161.411C178.073 155.791 173.512 151.235 167.885 151.235C162.259 151.235 157.698 155.791 157.698 161.411C157.698 167.031 162.259 171.587 167.885 171.587Z" fill="#FCC817"/>
<path d="M169.383 167.819L168.847 166.446C167.869 166.781 166.812 166.881 166.153 166.781L165.924 164.927C166.662 165.017 167.634 164.989 168.573 164.626C169.394 164.308 169.836 163.761 169.612 163.191C169.389 162.622 168.802 162.482 167.584 162.538C165.835 162.616 164.499 162.304 163.951 160.914C163.454 159.636 163.951 158.296 165.387 157.392L164.851 156.018L166.27 155.466L166.768 156.739C167.734 156.398 168.472 156.359 169.048 156.398L169.254 158.195C168.824 158.173 168.019 158.101 166.986 158.508C166.052 158.871 165.913 159.407 166.069 159.809C166.254 160.278 166.88 160.395 168.282 160.367C170.238 160.3 171.233 160.83 171.747 162.136C172.261 163.443 171.769 164.855 170.221 165.793L170.802 167.272L169.383 167.824V167.819Z" fill="#DEB425"/>
<path d="M186.661 136.442L183.344 137.623L184.527 140.935L187.843 139.754L186.661 136.442Z" fill="#A6C1E5"/>
<path d="M154.391 177.905L152.123 178.713L152.931 180.979L155.2 180.171L154.391 177.905Z" fill="#3F72B8"/>
<path d="M257.65 188.059L255.428 186.778L254.146 188.997L256.367 190.278L257.65 188.059Z" fill="#2A2B69"/>
<path d="M247.433 161.416C247.394 161.416 247.355 161.405 247.316 161.383C237.945 155.667 235.162 150.889 234.48 147.897C233.86 145.156 234.86 143.576 234.899 143.509C234.966 143.409 235.1 143.375 235.206 143.442C235.307 143.509 235.34 143.649 235.273 143.749C235.262 143.766 234.329 145.262 234.921 147.818C235.592 150.727 238.325 155.377 247.545 161.003C247.651 161.065 247.685 161.204 247.618 161.31C247.573 161.377 247.5 161.416 247.428 161.416H247.433Z" fill="#3969B3"/>
<path d="M214.351 180.831C214.351 180.831 214.318 180.831 214.295 180.825C214.178 180.797 214.105 180.674 214.133 180.552C215.603 174.808 219.079 172.815 219.224 172.731C219.336 172.675 219.47 172.714 219.526 172.815C219.587 172.921 219.548 173.06 219.442 173.116C219.409 173.133 215.983 175.109 214.564 180.658C214.536 180.758 214.446 180.825 214.346 180.825L214.351 180.831Z" fill="#3969B3"/>
<path d="M171.557 200.167C171.445 200.167 171.35 200.083 171.339 199.971C170.182 191.559 168.528 191.347 168.511 191.347C168.4 191.381 168.294 191.263 168.282 191.141C168.271 191.018 168.372 190.912 168.495 190.901C168.5 190.901 168.511 190.901 168.517 190.901C168.813 190.901 170.596 191.275 171.781 199.91C171.797 200.033 171.713 200.145 171.591 200.161C171.579 200.161 171.568 200.161 171.563 200.161L171.557 200.167Z" fill="#7893BE"/>
<path d="M55.5075 251.15L48.2261 271.1L100.984 271.379C100.984 271.379 98.2738 265.066 88.3995 262.42C78.5252 259.768 73.7305 251.15 73.7305 251.15H55.5075Z" fill="url(#paint1_linear_709_181)"/>
<path d="M120.956 134.418C120.956 134.418 131.026 142.54 119.704 143.338L120.956 134.418Z" fill="#F8AFA8"/>
<path d="M130.428 127.825C130.428 127.825 124.108 130.387 121.481 139.788C118.849 149.182 107.181 148.138 107.181 148.138L101.146 137.862C101.146 137.862 111.926 138.911 112.026 131.007C112.127 123.103 121.308 119.91 121.308 119.91L130.428 127.82V127.825Z" fill="#7DA6D8"/>
<path d="M118.38 127.462C119.112 128.171 119.33 129.321 118.866 130.237C118.743 130.482 118.447 130.605 118.19 130.488C117.944 130.376 117.816 130.058 117.938 129.812C117.961 129.768 117.983 129.723 118 129.679C118 129.667 118.045 129.55 118.028 129.6C118.011 129.651 118.045 129.533 118.05 129.522C118.061 129.472 118.073 129.427 118.078 129.377C118.084 129.338 118.089 129.299 118.089 129.254C118.089 129.204 118.089 129.299 118.089 129.215C118.089 129.126 118.084 129.037 118.067 128.947C118.067 128.919 118.045 128.836 118.067 128.908C118.056 128.858 118.045 128.813 118.028 128.769C118.006 128.702 117.978 128.635 117.95 128.568C117.944 128.551 117.916 128.495 117.911 128.49C117.888 128.456 117.866 128.423 117.844 128.389C117.821 128.356 117.793 128.322 117.771 128.294C117.76 128.277 117.76 128.277 117.754 128.266C117.749 128.266 117.748 128.266 117.732 128.25C117.67 128.194 117.609 128.143 117.542 128.093C117.525 128.076 117.525 128.076 117.519 128.071C117.514 128.071 117.508 128.071 117.491 128.06C117.458 128.043 117.419 128.021 117.385 128.004C117.346 127.987 117.313 127.97 117.274 127.954C117.274 127.954 117.206 127.931 117.19 127.926C117.117 127.903 117.044 127.887 116.972 127.876C116.921 127.87 116.877 127.864 116.826 127.859C116.899 127.864 116.815 127.859 116.787 127.859C116.698 127.859 116.609 127.87 116.519 127.881C116.502 127.881 116.497 127.881 116.491 127.881C116.491 127.881 116.491 127.881 116.48 127.881C116.441 127.892 116.402 127.903 116.363 127.915C116.318 127.931 116.268 127.948 116.223 127.965C116.201 127.976 116.078 128.037 116.167 127.987C115.927 128.121 115.625 128.104 115.457 127.864C115.312 127.658 115.34 127.289 115.58 127.155C116.463 126.675 117.637 126.737 118.38 127.462Z" fill="#A6C1E5"/>
<path d="M118.039 124.939C118.414 124.872 118.799 124.822 119.179 124.895C119.621 124.978 119.984 125.224 120.274 125.565C120.828 126.218 120.884 127.105 120.895 127.915C120.895 128.188 120.716 128.439 120.425 128.467C120.163 128.49 119.878 128.277 119.872 127.998C119.872 127.652 119.861 127.312 119.805 126.971C119.76 126.698 119.665 126.452 119.503 126.234C119.486 126.212 119.464 126.184 119.447 126.162C119.442 126.156 119.431 126.145 119.425 126.14C119.369 126.089 119.308 126.033 119.246 125.994C119.246 125.994 119.246 125.994 119.229 125.989C119.19 125.972 119.151 125.95 119.112 125.933C119.101 125.933 119.09 125.927 119.079 125.922C119.051 125.916 119.017 125.905 118.989 125.905C118.944 125.9 118.905 125.894 118.861 125.888C118.855 125.888 118.861 125.888 118.849 125.888C118.849 125.888 118.849 125.888 118.833 125.888C118.754 125.888 118.676 125.888 118.598 125.9C118.441 125.916 118.285 125.939 118.129 125.966C117.855 126.011 117.598 125.754 117.575 125.498C117.553 125.202 117.771 124.995 118.045 124.945L118.039 124.939Z" fill="#A6C1E5"/>
<path d="M111.557 139.821C112.16 139.743 112.825 139.95 113.261 140.368C113.803 140.887 113.965 141.596 114.094 142.305C114.144 142.568 113.881 142.847 113.624 142.858C113.328 142.869 113.127 142.674 113.071 142.389C113.021 142.11 112.999 141.959 112.898 141.669C112.876 141.602 112.848 141.54 112.825 141.479C112.797 141.423 112.797 141.418 112.825 141.462C112.809 141.434 112.792 141.401 112.775 141.373C112.741 141.317 112.702 141.261 112.658 141.206C112.646 141.189 112.635 141.178 112.624 141.166C112.624 141.166 112.624 141.166 112.613 141.155C112.568 141.122 112.529 141.083 112.484 141.049C112.473 141.038 112.412 141.005 112.395 140.988C112.317 140.943 112.233 140.91 112.149 140.876C112.127 140.876 112.06 140.854 112.049 140.848C111.993 140.837 111.937 140.832 111.886 140.826C111.881 140.826 111.881 140.826 111.875 140.826C111.853 140.826 111.831 140.826 111.808 140.826C111.752 140.826 111.696 140.832 111.641 140.843C111.378 140.876 111.099 140.642 111.087 140.374C111.076 140.084 111.272 139.86 111.557 139.821Z" fill="#A6C1E5"/>
<path d="M110.964 141.25C111.311 141.295 111.668 141.451 111.92 141.697C112.473 142.233 112.652 143.098 112.289 143.796C112.166 144.03 111.864 144.175 111.613 144.047C111.378 143.924 111.233 143.622 111.361 143.371C111.389 143.321 111.406 143.271 111.428 143.215C111.434 143.182 111.445 143.148 111.445 143.115C111.445 143.092 111.45 143.064 111.456 143.042C111.456 142.981 111.456 142.919 111.445 142.858C111.434 142.78 111.428 142.83 111.45 142.869C111.439 142.841 111.434 142.802 111.423 142.774C111.406 142.724 111.383 142.674 111.367 142.623C111.35 142.601 111.339 142.579 111.322 142.551C111.305 142.528 111.288 142.506 111.272 142.484C111.233 142.445 111.188 142.411 111.143 142.378C111.121 142.367 111.093 142.35 111.07 142.339C111.043 142.327 111.02 142.316 110.992 142.305C110.975 142.3 110.959 142.294 110.948 142.288C110.936 142.288 110.942 142.288 110.936 142.288C110.892 142.277 110.841 142.272 110.825 142.272C110.802 142.272 110.746 142.272 110.724 142.26C110.763 142.277 110.819 142.26 110.735 142.26C110.674 142.26 110.612 142.266 110.551 142.277C110.528 142.283 110.506 142.288 110.484 142.294C110.45 142.305 110.422 142.316 110.389 142.327C110.366 142.339 110.361 142.339 110.366 142.333C110.137 142.45 109.836 142.439 109.679 142.199C109.545 141.987 109.556 141.63 109.802 141.49C110.165 141.289 110.551 141.205 110.964 141.256V141.25Z" fill="#A6C1E5"/>
<path d="M124.739 126.765C124.516 127.005 124.454 127.351 124.555 127.658C124.639 127.915 124.84 128.127 125.024 128.316C125.376 128.668 125.846 128.903 126.326 129.009C126.65 129.081 126.952 129.059 127.215 128.83C127.382 128.685 127.533 128.529 127.662 128.35C127.751 128.339 127.846 128.316 127.913 128.266C128.031 128.182 128.087 128.071 128.126 127.937C128.282 127.407 127.986 126.843 127.679 126.424C127.483 126.156 127.226 125.933 126.891 125.866C126.617 125.81 126.326 125.883 126.075 125.994C125.846 126.095 125.617 126.212 125.393 126.324C125.153 126.446 124.924 126.558 124.734 126.765H124.739Z" fill="#A6C1E5"/>
<path d="M119.157 121.384C119.106 121.484 119.101 121.596 119.101 121.707C118.905 121.707 118.715 121.813 118.62 122.003C118.497 122.243 118.62 122.573 118.872 122.679C118.883 122.679 118.95 122.718 118.972 122.729C118.972 122.729 118.983 122.734 118.983 122.74C119.045 122.785 119.106 122.835 119.168 122.885C119.302 122.997 119.436 123.103 119.592 123.192C120.006 123.421 120.436 123.332 120.827 123.108C120.9 123.064 120.973 123.019 121.045 122.974C121.068 122.963 121.085 122.947 121.107 122.935C121.118 122.93 121.129 122.924 121.14 122.919C121.163 122.907 121.196 122.891 121.213 122.885C121.219 122.885 121.235 122.874 121.247 122.868C121.314 122.846 121.403 122.852 121.47 122.841C121.71 122.801 121.917 122.707 122.079 122.522C122.252 122.321 122.292 122.02 122.185 121.78C122.102 121.59 121.962 121.428 121.845 121.261C121.845 121.261 121.845 121.261 121.839 121.255C121.833 121.099 121.766 120.943 121.66 120.848C121.565 120.764 121.414 120.725 121.291 120.73C121.263 120.73 121.241 120.747 121.219 120.753C120.917 120.68 120.57 120.753 120.274 120.786C119.833 120.848 119.369 120.943 119.162 121.389L119.157 121.384Z" fill="#A6C1E5"/>
<path d="M107.433 144.376C107.422 144.504 107.399 144.627 107.371 144.75C107.36 144.806 107.349 144.856 107.332 144.906C107.332 144.918 107.327 144.923 107.321 144.934C107.315 144.951 107.304 144.979 107.304 144.99C107.237 145.174 107.159 145.358 107.103 145.548C106.958 146 106.907 146.469 107.176 146.888C107.338 147.145 107.639 147.318 107.947 147.312C108.087 147.312 108.209 147.256 108.316 147.189C108.444 147.212 108.578 147.195 108.684 147.122C109.333 146.659 109.478 145.772 109.199 145.057C109.076 144.739 108.891 144.449 108.668 144.192C108.584 144.091 108.494 143.985 108.366 143.935C108.198 143.863 108.019 143.885 107.857 143.969C107.645 143.996 107.438 144.164 107.416 144.382L107.433 144.376Z" fill="#A6C1E5"/>
<path d="M102.945 139.129C102.884 139.263 102.901 139.38 102.929 139.514C103.001 139.838 103.23 140.15 103.499 140.34C103.622 140.424 103.761 140.48 103.895 140.536C103.907 140.547 103.912 140.558 103.923 140.569C104.13 140.759 104.432 140.837 104.706 140.809C105.276 140.753 105.756 140.318 105.918 139.776C106.002 139.497 105.952 139.168 105.773 138.934C105.538 138.632 105.198 138.509 104.829 138.498C104.572 138.493 104.298 138.56 104.052 138.621C103.89 138.66 103.745 138.721 103.599 138.8C103.566 138.816 103.538 138.839 103.51 138.861C103.42 138.844 103.325 138.839 103.236 138.861C103.113 138.9 102.996 139.012 102.945 139.129Z" fill="#A6C1E5"/>
<path d="M116.502 134.021C117.028 134.004 117.497 134.205 117.933 134.485C118.369 134.769 118.749 135.104 118.816 135.646C118.86 136.008 118.754 136.371 118.631 136.712C118.609 136.885 118.587 137.063 118.525 137.225C118.38 137.622 118.056 137.912 117.665 138.051C117.547 138.146 117.424 138.23 117.273 138.292C116.843 138.47 116.346 138.42 115.938 138.197C115.508 137.962 115.049 137.644 114.764 137.242C114.189 136.416 114.602 135.484 115.167 134.78C115.502 134.362 115.943 134.044 116.497 134.021H116.502Z" fill="#A6C1E5"/>
<path d="M113.189 133.413C112.334 134.116 111.831 134.97 112.026 136.098C112.216 137.214 112.557 138.37 113.379 139.185C114.15 139.944 115.273 140.435 116.324 140.659C116.86 140.776 117.424 140.77 117.938 140.552C118.464 140.329 118.883 139.927 119.285 139.537C120.073 138.772 120.85 137.951 121.118 136.852C121.213 136.455 121.219 136.053 121.135 135.668C121.152 135.64 121.174 135.618 121.191 135.584C121.437 135.049 120.928 134.356 120.61 133.966C120.191 133.458 119.671 133.061 119.106 132.726C118.218 132.202 117.162 131.783 116.111 131.889C114.999 132.001 114.027 132.726 113.189 133.413ZM118.738 138.336C117.804 139.308 116.094 139.252 114.966 138.682C113.775 138.08 113.166 136.751 113.691 135.495C113.937 134.903 114.289 134.239 114.725 133.759C115.206 133.234 115.938 133.268 116.586 133.363C117.318 133.474 118.045 133.631 118.637 134.094C118.643 134.1 118.648 134.105 118.659 134.111C118.766 134.278 118.877 134.446 118.989 134.619C119.565 135.752 119.598 137.426 118.738 138.325V138.336Z" fill="#A6C1E5"/>
<path d="M99.4472 116.845C99.4472 116.845 100.151 122.204 107.623 122.204C109.45 122.204 111.216 122.863 112.524 124.141C114.574 126.151 117.598 128.841 119.129 128.914C121.571 129.026 119.57 133.402 112.971 129.249C112.971 129.249 112.49 134.859 108.461 136.812C107.913 137.075 106.192 137.778 105.684 137.443C104.51 136.662 103.404 134.764 101.766 130.873C99.5478 125.593 93.3337 122.388 93.3337 122.388" fill="#F9BBB3"/>
<path d="M62.4145 100.585C62.4145 100.585 78.2346 157.505 74.6861 172.739C71.1432 187.972 73.8144 251.155 73.8144 251.155H55.5913C55.5913 251.155 33.6466 225.846 40.2239 206.979C46.8011 188.112 41.3191 93.8306 41.3191 93.8306" fill="#242359"/>
<path d="M19.2792 78.7869C19.2792 78.7869 11.2881 86.8697 22.4868 117.191C26.8121 128.903 29.2709 138.197 30.6567 145.191C32.4338 154.167 31.4894 163.45 28.0079 171.912C25.7056 177.511 23.4703 183.718 23.0792 185.639C20.4248 198.595 23.9621 210.808 17.1836 221.263C10.4052 231.713 16.3734 251.272 16.3734 251.272H34.5964L60.7994 183.138C60.7994 183.138 69.2375 161.725 65.879 147.407C65.5158 145.866 65.309 144.298 65.119 142.724L60.2405 100.395C60.2405 100.395 38.5864 96.7443 19.2792 78.7869Z" fill="#2A2B69"/>
<path d="M78.1897 79.1441L82.4703 56.8159L101.582 44.3455C77.6197 33.2261 50.6344 46.4221 50.6344 46.4221C50.6344 46.4221 38.2846 46.8184 25.8006 49.816C13.3166 52.8135 10.1313 67.3827 10.1313 67.3827C28.5947 98.5585 63.5208 101.082 63.5208 101.082C63.5208 101.082 63.2972 104.699 66.2925 108.511C70.9586 114.451 70.5619 119.123 72.948 124.431C75.3398 129.74 82.5094 133.586 84.3702 131.063C86.2311 128.54 106.086 111.029 106.086 111.029L89.1705 94.6231" fill="url(#paint2_linear_709_181)"/>
<path d="M16.3734 250.943L9.09204 270.893L61.85 271.172C61.85 271.172 59.1397 264.859 49.2654 262.213C39.3911 259.562 34.5965 250.943 34.5965 250.943H16.3734Z" fill="url(#paint3_linear_709_181)"/>
<path d="M115.184 52.9476C115.184 52.9476 110.551 53.5783 102.845 60.0144L100.045 43.3129L109.741 42.8496" fill="#F6AAA5"/>
<path d="M135.77 46.1654L113.082 51.4348C113.082 51.4348 93.9429 35.0682 95.7702 27.6441C95.7702 27.6441 98.3743 23.7981 105.494 24.9089C112.602 26.0086 110.64 21.8499 121.806 20.5437C122.504 20.4544 123.186 20.4544 123.845 20.4991C122.582 19.2933 121.806 17.5852 121.806 15.7041C121.806 12.0032 124.806 9.00562 128.511 9.00562C132.216 9.00562 135.217 12.0088 135.217 15.7041C135.217 19.1929 132.54 22.062 129.137 22.3746C135.34 26.4886 138.447 35.833 138.833 36.7094C139.369 37.8816 138.967 43.8823 135.77 46.1709V46.1654Z" fill="#2A2B69"/>
<path d="M113.083 51.4292L119.481 45.4341C119.481 45.4341 122.482 41.7164 126.595 43.0896C130.708 44.4628 136.776 42.3081 136.776 42.3081C136.776 42.3081 136.581 44.7865 135.469 46.4165C134.357 48.0465 131.881 52.0879 131.943 54.3709C132.004 56.654 127.768 53.1317 121.437 56.52C121.437 56.52 116.279 56.0009 113.083 51.4348V51.4292Z" fill="#FABEB7"/>
<path d="M134.709 49.6319C132.328 49.6319 131.037 47.1534 131.026 47.1255C130.97 47.0139 131.015 46.8799 131.121 46.8241C131.233 46.7683 131.367 46.8129 131.423 46.9246C131.479 47.0418 132.921 49.7937 135.581 49.0625C135.709 49.029 135.821 49.1016 135.854 49.2188C135.888 49.336 135.821 49.4588 135.698 49.4923C135.351 49.5872 135.016 49.6319 134.709 49.6319Z" fill="#6D5E84"/>
<path d="M106.393 72.1554C106.393 72.1554 110.601 60.9187 115.899 57.6532C118.883 55.8167 121.28 53.8853 121.912 52.9476C122.543 52.0098 126.628 48.9955 123.359 55.5209C120.09 62.0463 124.292 62.1077 133.624 57.028C133.624 57.028 137.43 55.5823 133.345 60.8573C129.26 66.1268 119.777 65.4402 119.777 65.4402C119.777 65.4402 116.195 65.5016 115.821 68.2647C115.446 71.0278 116.033 75.9456 116.033 75.9456" fill="#F9B7B1"/>
<path d="M93.5407 67.0701L119.995 77.4527C119.995 77.4527 122.163 87.6399 112.881 93.9253C103.599 100.211 100.599 108.472 100.599 108.472L73.5015 77.6481" fill="#A2BEE4"/>
<path d="M63.5433 50.3575C58.3352 63.9164 52.5626 90.6153 74.58 113.77C74.58 113.77 95.9156 126.19 101.705 105.921C101.705 105.921 70.0368 79.4289 102.839 60.0145C102.839 60.0145 115.86 36.6927 77.0164 40.2373C70.9644 40.7899 65.7171 44.6862 63.5377 50.352L63.5433 50.3575Z" fill="#A2BEE4"/>
<path d="M276 8.17212V51.7345H224.835V92.21H172.121V41.8598C172.121 23.3386 187.304 8.17212 205.846 8.17212H276Z" fill="url(#paint4_linear_709_181)"/>
<path d="M224.835 74.7827H172.121V76.6248H224.835V74.7827Z" fill="#2A2B69"/>
<path d="M251.446 8.17212H249.602V51.7233H251.446V8.17212Z" fill="#2A2B69"/>
<path d="M176.994 84.1328C177.8 84.1328 178.453 83.4805 178.453 82.6759C178.453 81.8713 177.8 81.219 176.994 81.219C176.189 81.219 175.536 81.8713 175.536 82.6759C175.536 83.4805 176.189 84.1328 176.994 84.1328Z" fill="#2A2B69"/>
<path d="M220.057 84.1328C220.862 84.1328 221.515 83.4805 221.515 82.6759C221.515 81.8713 220.862 81.219 220.057 81.219C219.251 81.219 218.598 81.8713 218.598 82.6759C218.598 83.4805 219.251 84.1328 220.057 84.1328Z" fill="#2A2B69"/>
<path d="M256.76 47.4141C257.565 47.4141 258.218 46.7618 258.218 45.9572C258.218 45.1525 257.565 44.5002 256.76 44.5002C255.954 44.5002 255.301 45.1525 255.301 45.9572C255.301 46.7618 255.954 47.4141 256.76 47.4141Z" fill="#2A2B69"/>
<path d="M256.76 14.7925C257.565 14.7925 258.218 14.1402 258.218 13.3356C258.218 12.5309 257.565 11.8787 256.76 11.8787C255.954 11.8787 255.301 12.5309 255.301 13.3356C255.301 14.1402 255.954 14.7925 256.76 14.7925Z" fill="#2A2B69"/>
<path d="M236.637 91.7466H160.403V128.834H236.637V91.7466Z" fill="url(#paint5_linear_709_181)"/>
<path d="M237.101 212.252H160.867V249.339H237.101V212.252Z" fill="url(#paint6_linear_709_181)"/>
</svg>
