<svg width="211" height="135" viewBox="0 0 211 135" fill="none" xmlns="http://www.w3.org/2000/svg">
<defs>
<linearGradient id="paint0_linear_756_337" x1="118.759" y1="47.2488" x2="146.386" y2="47.2488" gradientUnits="userSpaceOnUse">
<stop stop-color="#A6C1E5"/>
<stop offset="0.24" stop-color="#99B8E1"/>
<stop offset="0.68" stop-color="#87ADDB"/>
<stop offset="1" stop-color="#81A9DA"/>
</linearGradient>
<clipPath id="clip0_756_337">
<rect width="211" height="135" fill="white"/>
</clipPath>
</defs>
<g clip-path="url(#clip0_756_337)">
<path d="M139.99 62.7109H65.5329V54.2953C65.5329 46.781 69.2674 40.095 74.972 36.001C77.7407 34.014 80.9686 32.6365 84.4584 32.0743C85.6302 31.8812 86.8278 31.7825 88.0512 31.7825H118.759C121.511 32.379 122.734 33.3016 122.734 33.3016C123.747 34.014 124.662 34.9367 125.752 35.4474C125.838 35.486 125.919 35.5203 125.996 35.5504C126.181 35.6233 126.361 35.6963 126.542 35.7778C130.336 37.4085 133.65 40.2237 136.028 43.6526C138.41 47.0814 139.853 51.1197 139.9 55.2008C139.926 57.7027 139.964 60.2047 139.99 62.7109Z" fill="#A6C1E5"/>
<path d="M105.5 0C88.6693 0 74.972 13.694 74.972 30.5207V52.5444C74.972 56.1062 75.5859 59.5308 76.7148 62.7108H87.0854C85.4113 59.6982 84.4584 56.2307 84.4584 52.5444V30.5207C84.4584 18.9209 93.8975 9.48408 105.5 9.48408C117.103 9.48408 126.542 18.9209 126.542 30.5207V52.5444C126.542 56.2307 125.589 59.6982 123.915 62.7108H134.285C135.414 59.5308 136.028 56.1062 136.028 52.5444V30.5207C136.028 13.694 122.331 0 105.5 0Z" fill="#A6C1E5"/>
<path d="M146.386 54.2953V62.7109H139.99C139.964 60.2047 139.926 57.7027 139.9 55.2008C139.853 51.1197 138.41 47.0814 136.028 43.6526C133.65 40.2237 130.336 37.4085 126.542 35.7778C126.361 35.6963 126.181 35.6233 125.996 35.5504C125.919 35.5203 125.838 35.486 125.752 35.4474C124.662 34.9367 123.747 34.014 122.734 33.3016C122.734 33.3016 121.511 32.379 118.759 31.7825H123.867C124.773 31.7825 125.666 31.8383 126.542 31.9498C126.7 31.9627 126.855 31.9842 127.014 32.0056C127.263 32.04 127.503 32.0743 127.744 32.1258C127.945 32.1515 128.134 32.1902 128.323 32.2331C128.615 32.2932 128.911 32.3532 129.203 32.4305C129.546 32.5077 129.881 32.6021 130.22 32.7051C130.555 32.7995 130.894 32.9111 131.22 33.0227H131.229C131.512 33.1257 131.796 33.233 132.083 33.3446C132.221 33.3961 132.358 33.4561 132.495 33.5162C132.701 33.602 132.92 33.6879 133.118 33.7823C133.367 33.8939 133.607 34.0054 133.847 34.1342C134.066 34.2415 134.281 34.353 134.487 34.4732C134.873 34.6706 135.264 34.8938 135.642 35.1255C135.775 35.2113 135.903 35.2929 136.028 35.3787C136.101 35.4259 136.174 35.4731 136.247 35.5246C136.762 35.8593 137.264 36.2241 137.745 36.6018C137.908 36.7219 138.067 36.8507 138.221 36.9794C138.462 37.1854 138.702 37.3957 138.934 37.6102C139.084 37.7304 139.23 37.8677 139.367 38.0051C139.445 38.0737 139.513 38.151 139.591 38.2239C139.762 38.387 139.934 38.5587 140.093 38.7303C140.29 38.9363 140.488 39.1423 140.668 39.3611C140.805 39.5071 140.934 39.6444 141.05 39.7989C141.17 39.9276 141.282 40.0649 141.394 40.2023C142.016 40.979 142.591 41.7901 143.111 42.6441C143.205 42.7986 143.299 42.9617 143.385 43.1162C143.48 43.2835 143.574 43.4466 143.669 43.6183C143.694 43.6783 143.729 43.7384 143.763 43.7985C143.883 44.0302 144.008 44.2748 144.128 44.5066C144.154 44.5752 144.188 44.6353 144.214 44.6954C144.342 44.9529 144.454 45.2104 144.566 45.4807C144.694 45.7811 144.815 46.0815 144.935 46.3862C145.158 46.9827 145.36 47.5921 145.54 48.2144C145.828 49.24 146.047 50.2957 146.188 51.3772C146.231 51.7205 146.274 52.0638 146.3 52.42C146.36 53.038 146.386 53.6688 146.386 54.2953Z" fill="#A6C1E5"/>
<path d="M139.9 55.2008C139.853 51.1197 138.41 47.0814 136.028 43.6526C133.65 40.2237 130.336 37.4085 126.542 35.7778C126.361 35.6963 126.181 35.6233 125.996 35.5504C125.919 35.5203 125.838 35.486 125.752 35.4474C124.434 34.8637 121.725 33.2888 118.759 31.7825H123.867C124.773 31.7825 125.666 31.8383 126.542 31.9498C126.7 31.9627 126.855 31.9842 127.014 32.0056C127.263 32.04 127.503 32.0743 127.744 32.1258C127.945 32.1515 128.134 32.1902 128.323 32.2331C128.615 32.2932 128.911 32.3532 129.203 32.4305C129.546 32.5077 129.881 32.6021 130.22 32.7051C130.555 32.7995 130.894 32.9111 131.22 33.0227H131.229C131.512 33.1257 131.796 33.233 132.083 33.3446C132.221 33.3961 132.358 33.4561 132.495 33.5162C132.701 33.602 132.92 33.6879 133.118 33.7823C133.367 33.8939 133.607 34.0054 133.847 34.1342C134.066 34.2415 134.281 34.353 134.487 34.4732C134.873 34.6706 135.264 34.8938 135.642 35.1255C135.775 35.2113 135.903 35.2929 136.028 35.3787C136.101 35.4259 136.174 35.4731 136.247 35.5246C136.762 35.8593 137.264 36.2241 137.745 36.6018C137.908 36.7219 138.067 36.8507 138.221 36.9794C138.462 37.1854 138.702 37.3957 138.934 37.6102C139.084 37.7304 139.23 37.8677 139.367 38.0051C139.445 38.0737 139.513 38.151 139.591 38.2239C139.762 38.387 139.934 38.5587 140.093 38.7303C140.29 38.9363 140.488 39.1423 140.668 39.3611C140.805 39.5071 140.934 39.6444 141.05 39.7989C141.17 39.9276 141.282 40.0649 141.394 40.2023C142.016 40.979 142.591 41.7901 143.111 42.6441C143.205 42.7986 143.299 42.9617 143.385 43.1162C143.48 43.2835 143.574 43.4466 143.669 43.6183C143.694 43.6783 143.729 43.7384 143.763 43.7985C143.883 44.0302 144.008 44.2748 144.128 44.5066C144.154 44.5752 144.188 44.6353 144.214 44.6954C144.342 44.9529 144.454 45.2104 144.566 45.4807C144.694 45.7811 144.815 46.0815 144.935 46.3862C145.158 46.9827 145.36 47.5921 145.54 48.2144C145.828 49.24 146.047 50.2957 146.188 51.3772C146.231 51.7205 146.274 52.0638 146.3 52.42C146.36 53.038 146.386 53.6688 146.386 54.2953V62.7109H139.99C139.964 60.2047 139.926 57.7027 139.9 55.2008Z" fill="url(#paint0_linear_756_337)"/>
<path d="M112.78 54.1752V62.7109H98.22V54.1752C98.22 52.1797 99.8511 50.5532 101.843 50.5532H109.157C111.149 50.5532 112.78 52.1797 112.78 54.1752Z" fill="#2A2B69"/>
<path d="M188.173 135H22.8273C10.2418 135 0 124.761 0 112.178V90.0387C0 77.4562 10.2418 67.2168 22.8273 67.2168H188.173C200.758 67.2168 211 77.4562 211 90.0387V112.178C211 124.761 200.758 135 188.173 135ZM22.8273 72.7957C13.3152 72.7957 5.58019 80.5288 5.58019 90.0387V112.178C5.58019 121.688 13.3152 129.421 22.8273 129.421H188.173C197.685 129.421 205.42 121.688 205.42 112.178V90.0387C205.42 80.5288 197.685 72.7957 188.173 72.7957H22.8273Z" fill="#6D94CD"/>
<path d="M37.941 97.2525L37.383 87.7041H44.4956L43.9376 97.2525L52.8444 93.7765L55.0422 100.527L45.8134 102.964L51.8443 110.354L46.1396 114.508L40.9543 106.479L35.7905 114.508L30.0257 110.354L36.0996 102.964L26.8322 100.527L29.0299 93.7765L37.9367 97.2525H37.941Z" fill="#2A2B69"/>
<path d="M70.2246 97.2525L69.6666 87.7041H76.7792L76.2212 97.2525L85.128 93.7765L87.3257 100.527L78.097 102.964L84.1279 110.354L78.4232 114.508L73.2379 106.479L68.0741 114.508L62.3093 110.354L68.3831 102.964L59.1157 100.527L61.3135 93.7765L70.2203 97.2525H70.2246Z" fill="#2A2B69"/>
<path d="M102.504 97.2525L101.946 87.7041H109.058L108.5 97.2525L117.407 93.7765L119.605 100.527L110.376 102.964L116.407 110.354L110.702 114.508L105.517 106.479L100.353 114.508L94.5886 110.354L100.662 102.964L91.395 100.527L93.5928 93.7765L102.5 97.2525H102.504Z" fill="#2A2B69"/>
<path d="M134.787 97.2525L134.229 87.7041H141.342L140.784 97.2525L149.691 93.7765L151.889 100.527L142.66 102.964L148.691 110.354L142.986 114.508L137.801 106.479L132.637 114.508L126.872 110.354L132.946 102.964L123.679 100.527L125.876 93.7765L134.783 97.2525H134.787Z" fill="#2A2B69"/>
<path d="M167.067 97.2525L166.509 87.7041H173.621L173.063 97.2525L181.97 93.7765L184.168 100.527L174.939 102.964L180.97 110.354L175.265 114.508L170.08 106.479L164.916 114.508L159.151 110.354L165.225 102.964L155.958 100.527L158.156 93.7765L167.062 97.2525H167.067Z" fill="#2A2B69"/>
</g>
</svg>
